<svg width="166" height="50" viewBox="0 0 166 50" fill="none" xmlns="http://www.w3.org/2000/svg">
<rect x="5" y="4" width="160.73" height="45.4524" fill="#01A9B4"/>
<rect x="0.5" y="0.5" width="159.73" height="44.4524" stroke="#FBFD8A"/>
<path d="M58.276 26.62C58.764 26.764 59.14 27.016 59.404 27.376C59.676 27.728 59.812 28.164 59.812 28.684C59.812 29.396 59.548 29.96 59.02 30.376C58.5 30.792 57.78 31 56.86 31H53.716C53.436 31 53.22 30.924 53.068 30.772C52.916 30.62 52.84 30.404 52.84 30.124V23.416C52.84 23.136 52.916 22.92 53.068 22.768C53.22 22.616 53.436 22.54 53.716 22.54H56.74C57.62 22.54 58.316 22.736 58.828 23.128C59.348 23.52 59.608 24.056 59.608 24.736C59.608 25.176 59.488 25.564 59.248 25.9C59.016 26.228 58.692 26.468 58.276 26.62ZM54.664 25.984H56.428C56.908 25.984 57.26 25.904 57.484 25.744C57.716 25.576 57.832 25.324 57.832 24.988C57.832 24.636 57.716 24.38 57.484 24.22C57.26 24.052 56.908 23.968 56.428 23.968H54.664V25.984ZM56.644 29.572C57.14 29.572 57.5 29.488 57.724 29.32C57.948 29.152 58.06 28.88 58.06 28.504C58.06 28.128 57.948 27.852 57.724 27.676C57.5 27.5 57.14 27.412 56.644 27.412H54.664V29.572H56.644ZM65.7334 24.988C66.0134 24.988 66.2334 25.064 66.3934 25.216C66.5614 25.368 66.6454 25.576 66.6454 25.84V30.244C66.6454 30.492 66.5574 30.692 66.3814 30.844C66.2134 30.996 65.9934 31.072 65.7214 31.072C65.4654 31.072 65.2614 31 65.1094 30.856C64.9574 30.712 64.8814 30.52 64.8814 30.28V30.16C64.6974 30.464 64.4534 30.696 64.1494 30.856C63.8534 31.016 63.5174 31.096 63.1414 31.096C62.3974 31.096 61.8414 30.892 61.4734 30.484C61.1134 30.068 60.9334 29.444 60.9334 28.612V25.84C60.9334 25.576 61.0134 25.368 61.1734 25.216C61.3414 25.064 61.5654 24.988 61.8454 24.988C62.1254 24.988 62.3454 25.064 62.5054 25.216C62.6654 25.368 62.7454 25.576 62.7454 25.84V28.648C62.7454 29 62.8174 29.26 62.9614 29.428C63.1134 29.596 63.3414 29.68 63.6454 29.68C63.9974 29.68 64.2814 29.56 64.4974 29.32C64.7214 29.08 64.8334 28.764 64.8334 28.372V25.84C64.8334 25.576 64.9134 25.368 65.0734 25.216C65.2334 25.064 65.4534 24.988 65.7334 24.988ZM72.0558 25.504C72.1278 25.336 72.2278 25.212 72.3558 25.132C72.4918 25.052 72.6358 25.012 72.7878 25.012C73.0198 25.012 73.2238 25.088 73.3998 25.24C73.5758 25.384 73.6638 25.56 73.6638 25.768C73.6638 25.88 73.6358 25.992 73.5798 26.104L70.3518 32.728C70.2718 32.896 70.1638 33.02 70.0278 33.1C69.8918 33.188 69.7478 33.232 69.5958 33.232C69.3718 33.232 69.1758 33.16 69.0078 33.016C68.8398 32.872 68.7558 32.696 68.7558 32.488C68.7558 32.36 68.7838 32.24 68.8398 32.128L69.6318 30.484L67.4958 26.104C67.4478 25.992 67.4238 25.884 67.4238 25.78C67.4238 25.564 67.5158 25.38 67.6998 25.228C67.8918 25.076 68.1078 25 68.3478 25C68.5078 25 68.6558 25.044 68.7918 25.132C68.9278 25.212 69.0358 25.336 69.1158 25.504L70.6038 28.744L72.0558 25.504ZM80.8336 31.06C80.5536 31.06 80.3256 30.976 80.1496 30.808C79.9816 30.64 79.8976 30.416 79.8976 30.136V24.064H77.9536C77.3616 24.064 77.0656 23.808 77.0656 23.296C77.0656 22.792 77.3616 22.54 77.9536 22.54H83.7136C84.3056 22.54 84.6016 22.792 84.6016 23.296C84.6016 23.808 84.3056 24.064 83.7136 24.064H81.7696V30.136C81.7696 30.416 81.6856 30.64 81.5176 30.808C81.3496 30.976 81.1216 31.06 80.8336 31.06ZM86.1744 31.072C85.9104 31.072 85.6904 31 85.5144 30.856C85.3464 30.712 85.2624 30.5 85.2624 30.22V25.84C85.2624 25.56 85.3504 25.348 85.5264 25.204C85.7024 25.06 85.9184 24.988 86.1744 24.988C86.4304 24.988 86.6424 25.06 86.8104 25.204C86.9864 25.348 87.0744 25.56 87.0744 25.84V30.22C87.0744 30.5 86.9864 30.712 86.8104 30.856C86.6424 31 86.4304 31.072 86.1744 31.072ZM86.1744 24.028C85.8544 24.028 85.6024 23.948 85.4184 23.788C85.2344 23.62 85.1424 23.396 85.1424 23.116C85.1424 22.836 85.2344 22.616 85.4184 22.456C85.6024 22.296 85.8544 22.216 86.1744 22.216C86.4864 22.216 86.7344 22.3 86.9184 22.468C87.1104 22.628 87.2064 22.844 87.2064 23.116C87.2064 23.396 87.1144 23.62 86.9304 23.788C86.7464 23.948 86.4944 24.028 86.1744 24.028ZM91.1856 31.096C90.5776 31.096 90.0456 30.972 89.5896 30.724C89.1336 30.476 88.7816 30.124 88.5336 29.668C88.2936 29.212 88.1736 28.676 88.1736 28.06C88.1736 27.444 88.3016 26.904 88.5576 26.44C88.8216 25.968 89.1896 25.604 89.6616 25.348C90.1336 25.092 90.6776 24.964 91.2936 24.964C91.6136 24.964 91.9336 25.008 92.2536 25.096C92.5816 25.184 92.8736 25.308 93.1296 25.468C93.3776 25.62 93.5016 25.844 93.5016 26.14C93.5016 26.348 93.4536 26.52 93.3576 26.656C93.2616 26.784 93.1336 26.848 92.9736 26.848C92.8696 26.848 92.7696 26.832 92.6736 26.8C92.5856 26.76 92.4656 26.704 92.3136 26.632C92.1456 26.544 91.9936 26.476 91.8576 26.428C91.7296 26.38 91.5816 26.356 91.4136 26.356C90.9656 26.356 90.6216 26.5 90.3816 26.788C90.1496 27.068 90.0336 27.48 90.0336 28.024C90.0336 28.568 90.1496 28.984 90.3816 29.272C90.6216 29.56 90.9656 29.704 91.4136 29.704C91.5816 29.704 91.7296 29.684 91.8576 29.644C91.9856 29.596 92.1416 29.524 92.3256 29.428C92.4776 29.356 92.5976 29.304 92.6856 29.272C92.7736 29.232 92.8696 29.212 92.9736 29.212C93.1256 29.212 93.2496 29.28 93.3456 29.416C93.4496 29.552 93.5016 29.724 93.5016 29.932C93.5016 30.228 93.3776 30.448 93.1296 30.592C92.8736 30.752 92.5776 30.876 92.2416 30.964C91.9056 31.052 91.5536 31.096 91.1856 31.096ZM99.9473 29.596C100.131 29.772 100.223 29.972 100.223 30.196C100.223 30.42 100.139 30.62 99.9713 30.796C99.8113 30.972 99.6233 31.06 99.4073 31.06C99.1993 31.06 99.0073 30.976 98.8313 30.808L96.2033 28.372V30.208C96.2033 30.488 96.1153 30.7 95.9393 30.844C95.7713 30.988 95.5593 31.06 95.3033 31.06C95.0393 31.06 94.8193 30.988 94.6433 30.844C94.4753 30.7 94.3913 30.488 94.3913 30.208V23.332C94.3913 23.052 94.4753 22.84 94.6433 22.696C94.8193 22.552 95.0393 22.48 95.3033 22.48C95.5593 22.48 95.7713 22.552 95.9393 22.696C96.1153 22.84 96.2033 23.052 96.2033 23.332V27.628L98.6033 25.264C98.7793 25.088 98.9753 25 99.1913 25C99.4153 25 99.6113 25.084 99.7793 25.252C99.9473 25.412 100.031 25.604 100.031 25.828C100.031 26.036 99.9393 26.232 99.7553 26.416L98.1593 27.94L99.9473 29.596ZM105.752 29.248C105.912 29.248 106.04 29.312 106.136 29.44C106.24 29.568 106.292 29.732 106.292 29.932C106.292 30.068 106.252 30.196 106.172 30.316C106.092 30.428 105.98 30.524 105.836 30.604C105.564 30.748 105.248 30.868 104.888 30.964C104.528 31.052 104.196 31.096 103.892 31.096C103.252 31.096 102.692 30.972 102.212 30.724C101.74 30.476 101.376 30.124 101.12 29.668C100.864 29.204 100.736 28.66 100.736 28.036C100.736 27.436 100.86 26.904 101.108 26.44C101.356 25.976 101.7 25.616 102.14 25.36C102.58 25.096 103.08 24.964 103.64 24.964C104.176 24.964 104.644 25.084 105.044 25.324C105.452 25.556 105.768 25.892 105.992 26.332C106.216 26.764 106.328 27.272 106.328 27.856C106.328 28.032 106.284 28.168 106.196 28.264C106.116 28.352 106 28.396 105.848 28.396H102.488C102.544 28.868 102.688 29.212 102.92 29.428C103.152 29.636 103.484 29.74 103.916 29.74C104.148 29.74 104.356 29.712 104.54 29.656C104.724 29.6 104.928 29.524 105.152 29.428C105.264 29.38 105.372 29.34 105.476 29.308C105.58 29.268 105.672 29.248 105.752 29.248ZM103.688 26.212C103.344 26.212 103.068 26.324 102.86 26.548C102.652 26.764 102.528 27.08 102.488 27.496H104.804C104.78 27.072 104.672 26.752 104.48 26.536C104.296 26.32 104.032 26.212 103.688 26.212ZM110.581 29.752C110.821 29.768 110.997 29.828 111.109 29.932C111.221 30.036 111.277 30.188 111.277 30.388C111.277 30.62 111.185 30.796 111.001 30.916C110.817 31.036 110.553 31.084 110.209 31.06L109.873 31.036C108.473 30.924 107.773 30.192 107.773 28.84V26.464H107.293C107.029 26.464 106.829 26.408 106.693 26.296C106.557 26.176 106.489 26.008 106.489 25.792C106.489 25.568 106.557 25.4 106.693 25.288C106.829 25.168 107.029 25.108 107.293 25.108H107.773V24.172C107.773 23.908 107.853 23.7 108.013 23.548C108.181 23.396 108.405 23.32 108.685 23.32C108.965 23.32 109.185 23.396 109.345 23.548C109.505 23.7 109.585 23.908 109.585 24.172V25.108H110.425C110.969 25.108 111.241 25.336 111.241 25.792C111.241 26.008 111.173 26.176 111.037 26.296C110.901 26.408 110.697 26.464 110.425 26.464H109.585V28.972C109.585 29.212 109.641 29.396 109.753 29.524C109.865 29.644 110.029 29.712 110.245 29.728L110.581 29.752ZM114.178 31.096C113.69 31.096 113.266 31.056 112.906 30.976C112.546 30.896 112.23 30.768 111.958 30.592C111.838 30.52 111.746 30.424 111.682 30.304C111.618 30.184 111.586 30.048 111.586 29.896C111.586 29.712 111.638 29.56 111.742 29.44C111.846 29.312 111.974 29.248 112.126 29.248C112.23 29.248 112.334 29.268 112.438 29.308C112.542 29.34 112.65 29.38 112.762 29.428C112.986 29.532 113.206 29.616 113.422 29.68C113.638 29.736 113.906 29.764 114.226 29.764C114.506 29.764 114.722 29.72 114.874 29.632C115.034 29.544 115.114 29.424 115.114 29.272C115.114 29.16 115.078 29.072 115.006 29.008C114.942 28.936 114.818 28.872 114.634 28.816C114.45 28.76 114.158 28.692 113.758 28.612C113.046 28.476 112.534 28.272 112.222 28C111.91 27.728 111.754 27.348 111.754 26.86C111.754 26.5 111.862 26.176 112.078 25.888C112.302 25.6 112.606 25.376 112.99 25.216C113.374 25.048 113.806 24.964 114.286 24.964C114.63 24.964 114.966 25.008 115.294 25.096C115.622 25.184 115.914 25.308 116.17 25.468C116.418 25.62 116.542 25.844 116.542 26.14C116.542 26.332 116.49 26.492 116.386 26.62C116.282 26.748 116.154 26.812 116.002 26.812C115.818 26.812 115.598 26.74 115.342 26.596C115.142 26.492 114.958 26.416 114.79 26.368C114.63 26.312 114.438 26.284 114.214 26.284C113.966 26.284 113.77 26.332 113.626 26.428C113.482 26.516 113.41 26.64 113.41 26.8C113.41 26.968 113.494 27.096 113.662 27.184C113.83 27.272 114.154 27.36 114.634 27.448C115.17 27.552 115.59 27.68 115.894 27.832C116.198 27.976 116.418 28.16 116.554 28.384C116.69 28.608 116.758 28.892 116.758 29.236C116.758 29.804 116.522 30.256 116.05 30.592C115.586 30.928 114.962 31.096 114.178 31.096Z" fill="#D8F7F9"/>
</svg>
