<svg width="55" height="11" viewBox="0 0 55 11" fill="none" xmlns="http://www.w3.org/2000/svg">
<path d="M12.8755 7.21584C12.8755 9.49602 14.234 10.8607 16.2525 10.8607C17.259 10.8607 18.106 10.5707 18.579 9.80876V10.8607H20.4215V0H18.5075V4.61723C18.073 3.85527 17.27 3.5141 16.2635 3.5141C14.2945 3.50841 12.8755 4.90154 12.8755 7.21584ZM18.568 7.21584C18.568 8.51799 17.71 9.33112 16.6815 9.33112C15.6145 9.33112 14.795 8.51799 14.795 7.21584C14.795 5.89094 15.62 5.06075 16.6815 5.06075C17.71 5.06075 18.568 5.90232 18.568 7.21584Z" fill="white"/>
<path d="M26.378 8.05736C26.158 8.89893 25.6025 9.31971 24.728 9.31971C23.7105 9.31971 22.8745 8.68285 22.8525 7.55698H27.676C27.7365 7.27835 27.764 6.98266 27.764 6.65855C27.764 4.63993 26.433 3.50269 24.4695 3.50269C22.374 3.50269 20.933 5.04366 20.933 7.13619C20.933 9.46755 22.5225 10.8664 24.7225 10.8664C26.3835 10.8664 27.511 10.1499 28.006 8.72265L26.378 8.05736ZM22.8525 6.23777C23.034 5.42463 23.6885 4.94699 24.475 4.94699C25.333 4.94699 25.916 5.42463 25.916 6.17522L25.905 6.23777H22.8525Z" fill="white"/>
<path d="M33.4785 8.05736C33.2585 8.89893 32.703 9.31971 31.8285 9.31971C30.811 9.31971 29.975 8.68285 29.953 7.55698H34.7765C34.837 7.27835 34.8645 6.98266 34.8645 6.65855C34.8645 4.63993 33.5335 3.50269 31.57 3.50269C29.4745 3.50269 28.0335 5.04366 28.0335 7.13619C28.0335 9.46755 29.623 10.8664 31.823 10.8664C33.484 10.8664 34.6115 10.1499 35.1065 8.72265L33.4785 8.05736ZM29.953 6.23777C30.1345 5.42463 30.789 4.94699 31.5755 4.94699C32.4335 4.94699 33.0165 5.42463 33.0165 6.17522L33.0055 6.23777H29.953Z" fill="white"/>
<path d="M41.6185 10.8721V9.08094H37.598L41.5085 5.14606V3.50842H35.321V5.2143H39.0995L35.2 9.16623V10.8721H41.6185Z" fill="white"/>
<path d="M47.212 8.05736C46.992 8.89893 46.4365 9.31971 45.562 9.31971C44.5445 9.31971 43.7085 8.68285 43.6865 7.55698H48.51C48.5705 7.27835 48.598 6.98266 48.598 6.65855C48.598 4.63993 47.267 3.50269 45.3035 3.50269C43.208 3.50269 41.767 5.04366 41.767 7.13619C41.767 9.46755 43.3565 10.8664 45.5565 10.8664C47.2175 10.8664 48.345 10.1499 48.84 8.72265L47.212 8.05736ZM43.6865 6.23777C43.868 5.42463 44.5225 4.94699 45.309 4.94699C46.167 4.94699 46.75 5.42463 46.75 6.17522L46.739 6.23777H43.6865Z" fill="white"/>
<path d="M10.912 3.50842H8.55249V4.93567H10.912V3.50842Z" fill="#40AB5D"/>
<path d="M10.912 5.4873H8.55249V6.91455H10.912V5.4873Z" fill="url(#paint0_linear)"/>
<path d="M10.912 7.46606H8.55249V8.89331H10.912V7.46606Z" fill="url(#paint1_linear)"/>
<path d="M2.3595 9.4447H0V10.8719H2.3595V9.4447Z" fill="url(#paint2_linear)"/>
<path d="M5.2085 9.4447H2.849V10.8719H5.2085V9.4447Z" fill="url(#paint3_linear)"/>
<path d="M8.06299 9.4447H5.70349V10.8719H8.06299V9.4447Z" fill="url(#paint4_linear)"/>
<path d="M10.912 9.4447H8.55249V10.8719H10.912V9.4447Z" fill="url(#paint5_linear)"/>
<path d="M8.06299 7.46606H5.70349V8.89331H8.06299V7.46606Z" fill="url(#paint6_linear)"/>
<path d="M5.2085 7.46606H2.849V8.89331H5.2085V7.46606Z" fill="url(#paint7_linear)"/>
<path d="M5.2085 5.4873H2.849V6.91455H5.2085V5.4873Z" fill="url(#paint8_linear)"/>
<path d="M53.1355 6.05015C53.1355 6.12407 53.1355 6.26054 53.1355 6.26054H55C55 6.26054 55 5.89662 55 5.69761C55 4.43526 54.2355 3.51978 52.954 3.51978C52.129 3.51978 51.546 3.93487 51.2435 4.62291V3.51978H49.3185V10.8721H51.2435V6.13545C51.2435 5.38486 51.634 4.96977 52.2335 4.96977C52.7835 4.97545 53.1355 5.50996 53.1355 6.05015Z" fill="white"/>
<defs>
<linearGradient id="paint0_linear" x1="9.7438" y1="6.92688" x2="9.72008" y2="5.46637" gradientUnits="userSpaceOnUse">
<stop stop-color="#358C7B"/>
<stop offset="0.5256" stop-color="#33A65E"/>
</linearGradient>
<linearGradient id="paint1_linear" x1="8.5178" y1="8.82003" x2="10.9805" y2="7.60634" gradientUnits="userSpaceOnUse">
<stop stop-color="#222B90"/>
<stop offset="1" stop-color="#367B99"/>
</linearGradient>
<linearGradient id="paint2_linear" x1="0.000431507" y1="10.1589" x2="2.35796" y2="10.1589" gradientUnits="userSpaceOnUse">
<stop stop-color="#FF9900"/>
<stop offset="1" stop-color="#FF8000"/>
</linearGradient>
<linearGradient id="paint3_linear" x1="2.85163" y1="10.1589" x2="5.20915" y2="10.1589" gradientUnits="userSpaceOnUse">
<stop stop-color="#FF8000"/>
<stop offset="1" stop-color="#CC1953"/>
</linearGradient>
<linearGradient id="paint4_linear" x1="5.70282" y1="10.1589" x2="8.06034" y2="10.1589" gradientUnits="userSpaceOnUse">
<stop stop-color="#CC1953"/>
<stop offset="1" stop-color="#241284"/>
</linearGradient>
<linearGradient id="paint5_linear" x1="8.55122" y1="10.1589" x2="10.9087" y2="10.1589" gradientUnits="userSpaceOnUse">
<stop stop-color="#222B90"/>
<stop offset="1" stop-color="#3559A6"/>
</linearGradient>
<linearGradient id="paint6_linear" x1="5.60976" y1="8.5645" x2="8.16637" y2="7.84138" gradientUnits="userSpaceOnUse">
<stop stop-color="#CC1953"/>
<stop offset="1" stop-color="#241284"/>
</linearGradient>
<linearGradient id="paint7_linear" x1="2.76771" y1="7.70486" x2="5.31225" y2="8.60067" gradientUnits="userSpaceOnUse">
<stop offset="0.00266984" stop-color="#FFCC00"/>
<stop offset="0.9999" stop-color="#CE1938"/>
</linearGradient>
<linearGradient id="paint8_linear" x1="3.04978" y1="5.2655" x2="5.07089" y2="7.06942" gradientUnits="userSpaceOnUse">
<stop offset="0.00266984" stop-color="#FFD100"/>
<stop offset="1" stop-color="#FD5A22"/>
</linearGradient>
</defs>
</svg>
