<svg width="252" height="75" viewBox="0 0 252 75" fill="none" xmlns="http://www.w3.org/2000/svg">
<rect x="0.5" y="0.5" width="243" height="68" stroke="#FBFD8A"/>
<rect x="8" y="6" width="244" height="69" fill="#01A9B4"/>
<path d="M85.46 39.7C86.2733 39.94 86.9 40.36 87.34 40.96C87.7933 41.5467 88.02 42.2733 88.02 43.14C88.02 44.3267 87.58 45.2667 86.7 45.96C85.8333 46.6533 84.6333 47 83.1 47H77.86C77.3933 47 77.0333 46.8733 76.78 46.62C76.5267 46.3667 76.4 46.0067 76.4 45.54V34.36C76.4 33.8933 76.5267 33.5333 76.78 33.28C77.0333 33.0267 77.3933 32.9 77.86 32.9H82.9C84.3667 32.9 85.5267 33.2267 86.38 33.88C87.2467 34.5333 87.68 35.4267 87.68 36.56C87.68 37.2933 87.48 37.94 87.08 38.5C86.6933 39.0467 86.1533 39.4467 85.46 39.7ZM79.44 38.64H82.38C83.18 38.64 83.7667 38.5067 84.14 38.24C84.5267 37.96 84.72 37.54 84.72 36.98C84.72 36.3933 84.5267 35.9667 84.14 35.7C83.7667 35.42 83.18 35.28 82.38 35.28H79.44V38.64ZM82.74 44.62C83.5667 44.62 84.1667 44.48 84.54 44.2C84.9133 43.92 85.1 43.4667 85.1 42.84C85.1 42.2133 84.9133 41.7533 84.54 41.46C84.1667 41.1667 83.5667 41.02 82.74 41.02H79.44V44.62H82.74ZM97.8891 36.98C98.3557 36.98 98.7224 37.1067 98.9891 37.36C99.2691 37.6133 99.4091 37.96 99.4091 38.4V45.74C99.4091 46.1533 99.2624 46.4867 98.9691 46.74C98.6891 46.9933 98.3224 47.12 97.8691 47.12C97.4424 47.12 97.1024 47 96.8491 46.76C96.5957 46.52 96.4691 46.2 96.4691 45.8V45.6C96.1624 46.1067 95.7557 46.4933 95.2491 46.76C94.7557 47.0267 94.1957 47.16 93.5691 47.16C92.3291 47.16 91.4024 46.82 90.7891 46.14C90.1891 45.4467 89.8891 44.4067 89.8891 43.02V38.4C89.8891 37.96 90.0224 37.6133 90.2891 37.36C90.5691 37.1067 90.9424 36.98 91.4091 36.98C91.8757 36.98 92.2424 37.1067 92.5091 37.36C92.7757 37.6133 92.9091 37.96 92.9091 38.4V43.08C92.9091 43.6667 93.0291 44.1 93.2691 44.38C93.5224 44.66 93.9024 44.8 94.4091 44.8C94.9957 44.8 95.4691 44.6 95.8291 44.2C96.2024 43.8 96.3891 43.2733 96.3891 42.62V38.4C96.3891 37.96 96.5224 37.6133 96.7891 37.36C97.0557 37.1067 97.4224 36.98 97.8891 36.98ZM108.426 37.84C108.546 37.56 108.713 37.3533 108.926 37.22C109.153 37.0867 109.393 37.02 109.646 37.02C110.033 37.02 110.373 37.1467 110.666 37.4C110.96 37.64 111.106 37.9333 111.106 38.28C111.106 38.4667 111.06 38.6533 110.966 38.84L105.586 49.88C105.453 50.16 105.273 50.3667 105.046 50.5C104.82 50.6467 104.58 50.72 104.326 50.72C103.953 50.72 103.626 50.6 103.346 50.36C103.066 50.12 102.926 49.8267 102.926 49.48C102.926 49.2667 102.973 49.0667 103.066 48.88L104.386 46.14L100.826 38.84C100.746 38.6533 100.706 38.4733 100.706 38.3C100.706 37.94 100.86 37.6333 101.166 37.38C101.486 37.1267 101.846 37 102.246 37C102.513 37 102.76 37.0733 102.986 37.22C103.213 37.3533 103.393 37.56 103.526 37.84L106.006 43.24L108.426 37.84ZM123.056 47.1C122.589 47.1 122.209 46.96 121.916 46.68C121.636 46.4 121.496 46.0267 121.496 45.56V35.44H118.256C117.269 35.44 116.776 35.0133 116.776 34.16C116.776 33.32 117.269 32.9 118.256 32.9H127.856C128.843 32.9 129.336 33.32 129.336 34.16C129.336 35.0133 128.843 35.44 127.856 35.44H124.616V45.56C124.616 46.0267 124.476 46.4 124.196 46.68C123.916 46.96 123.536 47.1 123.056 47.1ZM131.957 47.12C131.517 47.12 131.151 47 130.857 46.76C130.577 46.52 130.437 46.1667 130.437 45.7V38.4C130.437 37.9333 130.584 37.58 130.877 37.34C131.171 37.1 131.531 36.98 131.957 36.98C132.384 36.98 132.737 37.1 133.017 37.34C133.311 37.58 133.457 37.9333 133.457 38.4V45.7C133.457 46.1667 133.311 46.52 133.017 46.76C132.737 47 132.384 47.12 131.957 47.12ZM131.957 35.38C131.424 35.38 131.004 35.2467 130.697 34.98C130.391 34.7 130.237 34.3267 130.237 33.86C130.237 33.3933 130.391 33.0267 130.697 32.76C131.004 32.4933 131.424 32.36 131.957 32.36C132.477 32.36 132.891 32.5 133.197 32.78C133.517 33.0467 133.677 33.4067 133.677 33.86C133.677 34.3267 133.524 34.7 133.217 34.98C132.911 35.2467 132.491 35.38 131.957 35.38ZM140.309 47.16C139.296 47.16 138.409 46.9533 137.649 46.54C136.889 46.1267 136.303 45.54 135.889 44.78C135.489 44.02 135.289 43.1267 135.289 42.1C135.289 41.0733 135.503 40.1733 135.929 39.4C136.369 38.6133 136.983 38.0067 137.769 37.58C138.556 37.1533 139.463 36.94 140.489 36.94C141.023 36.94 141.556 37.0133 142.089 37.16C142.636 37.3067 143.123 37.5133 143.549 37.78C143.963 38.0333 144.169 38.4067 144.169 38.9C144.169 39.2467 144.089 39.5333 143.929 39.76C143.769 39.9733 143.556 40.08 143.289 40.08C143.116 40.08 142.949 40.0533 142.789 40C142.643 39.9333 142.443 39.84 142.189 39.72C141.909 39.5733 141.656 39.46 141.429 39.38C141.216 39.3 140.969 39.26 140.689 39.26C139.943 39.26 139.369 39.5 138.969 39.98C138.583 40.4467 138.389 41.1333 138.389 42.04C138.389 42.9467 138.583 43.64 138.969 44.12C139.369 44.6 139.943 44.84 140.689 44.84C140.969 44.84 141.216 44.8067 141.429 44.74C141.643 44.66 141.903 44.54 142.209 44.38C142.463 44.26 142.663 44.1733 142.809 44.12C142.956 44.0533 143.116 44.02 143.289 44.02C143.543 44.02 143.749 44.1333 143.909 44.36C144.083 44.5867 144.169 44.8733 144.169 45.22C144.169 45.7133 143.963 46.08 143.549 46.32C143.123 46.5867 142.629 46.7933 142.069 46.94C141.509 47.0867 140.923 47.16 140.309 47.16ZM154.912 44.66C155.219 44.9533 155.372 45.2867 155.372 45.66C155.372 46.0333 155.232 46.3667 154.952 46.66C154.686 46.9533 154.372 47.1 154.012 47.1C153.666 47.1 153.346 46.96 153.052 46.68L148.672 42.62V45.68C148.672 46.1467 148.526 46.5 148.232 46.74C147.952 46.98 147.599 47.1 147.172 47.1C146.732 47.1 146.366 46.98 146.072 46.74C145.792 46.5 145.652 46.1467 145.652 45.68V34.22C145.652 33.7533 145.792 33.4 146.072 33.16C146.366 32.92 146.732 32.8 147.172 32.8C147.599 32.8 147.952 32.92 148.232 33.16C148.526 33.4 148.672 33.7533 148.672 34.22V41.38L152.672 37.44C152.966 37.1467 153.292 37 153.652 37C154.026 37 154.352 37.14 154.632 37.42C154.912 37.6867 155.052 38.0067 155.052 38.38C155.052 38.7267 154.899 39.0533 154.592 39.36L151.932 41.9L154.912 44.66ZM164.587 44.08C164.854 44.08 165.067 44.1867 165.227 44.4C165.4 44.6133 165.487 44.8867 165.487 45.22C165.487 45.4467 165.42 45.66 165.287 45.86C165.154 46.0467 164.967 46.2067 164.727 46.34C164.274 46.58 163.747 46.78 163.147 46.94C162.547 47.0867 161.994 47.16 161.487 47.16C160.42 47.16 159.487 46.9533 158.687 46.54C157.9 46.1267 157.294 45.54 156.867 44.78C156.44 44.0067 156.227 43.1 156.227 42.06C156.227 41.06 156.434 40.1733 156.847 39.4C157.26 38.6267 157.834 38.0267 158.567 37.6C159.3 37.16 160.134 36.94 161.067 36.94C161.96 36.94 162.74 37.14 163.407 37.54C164.087 37.9267 164.614 38.4867 164.987 39.22C165.36 39.94 165.547 40.7867 165.547 41.76C165.547 42.0533 165.474 42.28 165.327 42.44C165.194 42.5867 165 42.66 164.747 42.66H159.147C159.24 43.4467 159.48 44.02 159.867 44.38C160.254 44.7267 160.807 44.9 161.527 44.9C161.914 44.9 162.26 44.8533 162.567 44.76C162.874 44.6667 163.214 44.54 163.587 44.38C163.774 44.3 163.954 44.2333 164.127 44.18C164.3 44.1133 164.454 44.08 164.587 44.08ZM161.147 39.02C160.574 39.02 160.114 39.2067 159.767 39.58C159.42 39.94 159.214 40.4667 159.147 41.16H163.007C162.967 40.4533 162.787 39.92 162.467 39.56C162.16 39.2 161.72 39.02 161.147 39.02ZM172.636 44.92C173.036 44.9467 173.329 45.0467 173.516 45.22C173.702 45.3933 173.796 45.6467 173.796 45.98C173.796 46.3667 173.642 46.66 173.336 46.86C173.029 47.06 172.589 47.14 172.016 47.1L171.456 47.06C169.122 46.8733 167.956 45.6533 167.956 43.4V39.44H167.156C166.716 39.44 166.382 39.3467 166.156 39.16C165.929 38.96 165.816 38.68 165.816 38.32C165.816 37.9467 165.929 37.6667 166.156 37.48C166.382 37.28 166.716 37.18 167.156 37.18H167.956V35.62C167.956 35.18 168.089 34.8333 168.356 34.58C168.636 34.3267 169.009 34.2 169.476 34.2C169.942 34.2 170.309 34.3267 170.576 34.58C170.842 34.8333 170.976 35.18 170.976 35.62V37.18H172.376C173.282 37.18 173.736 37.56 173.736 38.32C173.736 38.68 173.622 38.96 173.396 39.16C173.169 39.3467 172.829 39.44 172.376 39.44H170.976V43.62C170.976 44.02 171.069 44.3267 171.256 44.54C171.442 44.74 171.716 44.8533 172.076 44.88L172.636 44.92ZM178.63 47.16C177.817 47.16 177.11 47.0933 176.51 46.96C175.91 46.8267 175.383 46.6133 174.93 46.32C174.73 46.2 174.577 46.04 174.47 45.84C174.363 45.64 174.31 45.4133 174.31 45.16C174.31 44.8533 174.397 44.6 174.57 44.4C174.743 44.1867 174.957 44.08 175.21 44.08C175.383 44.08 175.557 44.1133 175.73 44.18C175.903 44.2333 176.083 44.3 176.27 44.38C176.643 44.5533 177.01 44.6933 177.37 44.8C177.73 44.8933 178.177 44.94 178.71 44.94C179.177 44.94 179.537 44.8667 179.79 44.72C180.057 44.5733 180.19 44.3733 180.19 44.12C180.19 43.9333 180.13 43.7867 180.01 43.68C179.903 43.56 179.697 43.4533 179.39 43.36C179.083 43.2667 178.597 43.1533 177.93 43.02C176.743 42.7933 175.89 42.4533 175.37 42C174.85 41.5467 174.59 40.9133 174.59 40.1C174.59 39.5 174.77 38.96 175.13 38.48C175.503 38 176.01 37.6267 176.65 37.36C177.29 37.08 178.01 36.94 178.81 36.94C179.383 36.94 179.943 37.0133 180.49 37.16C181.037 37.3067 181.523 37.5133 181.95 37.78C182.363 38.0333 182.57 38.4067 182.57 38.9C182.57 39.22 182.483 39.4867 182.31 39.7C182.137 39.9133 181.923 40.02 181.67 40.02C181.363 40.02 180.997 39.9 180.57 39.66C180.237 39.4867 179.93 39.36 179.65 39.28C179.383 39.1867 179.063 39.14 178.69 39.14C178.277 39.14 177.95 39.22 177.71 39.38C177.47 39.5267 177.35 39.7333 177.35 40C177.35 40.28 177.49 40.4933 177.77 40.64C178.05 40.7867 178.59 40.9333 179.39 41.08C180.283 41.2533 180.983 41.4667 181.49 41.72C181.997 41.96 182.363 42.2667 182.59 42.64C182.817 43.0133 182.93 43.4867 182.93 44.06C182.93 45.0067 182.537 45.76 181.75 46.32C180.977 46.88 179.937 47.16 178.63 47.16Z" fill="#D8F7F9"/>
</svg>
