<svg width="121" height="29" viewBox="0 0 121 29" fill="none" xmlns="http://www.w3.org/2000/svg">
<path d="M17.8148 0H18.4673C18.5841 3.42764 15.7768 6.94389 12.2042 6.88347C12.1437 3.59278 14.6087 0.632361 17.8148 0Z" fill="white"/>
<path d="M97.6494 1.75984C99.1437 0.764976 101.327 2.28345 101.009 4.0315C100.952 5.27609 99.756 5.9447 98.6765 6.2065C98.0965 5.95275 97.4319 5.80373 97.009 5.29623C96.0061 4.29331 96.3565 2.35192 97.6494 1.75984Z" fill="white"/>
<path d="M28.416 1.93347C29.9989 1.9375 31.5818 1.94153 33.1688 1.92139C36.1493 9.03847 39.0171 16.2039 41.9373 23.3451C44.938 16.2401 47.7534 9.05861 50.7138 1.9375C52.3007 1.93347 53.8836 1.93347 55.4666 1.94153C55.4867 10.8107 55.4706 19.6839 55.4746 28.5531C54.226 28.549 52.9774 28.545 51.7248 28.5812C51.6482 22.0965 51.7852 15.6118 51.6563 9.12708C51.3784 9.63055 51.1206 10.1421 50.891 10.6697C48.4582 16.6349 45.9811 22.5839 43.5363 28.545C42.4649 28.5571 41.3895 28.5611 40.3181 28.4967C37.7564 21.9556 34.945 15.5111 32.3511 8.98611C32.186 15.495 32.3189 22.0119 32.2827 28.5249C30.9898 28.5571 29.7009 28.5531 28.408 28.5571C28.408 19.6799 28.3959 10.8067 28.416 1.93347Z" fill="white"/>
<path d="M6.57333 6.99239C8.66778 6.62183 10.5044 7.88655 12.4942 8.22891C14.3751 7.83016 16.1232 6.73864 18.1049 6.9078C20.3121 6.85947 22.3582 7.99933 23.7518 9.65475C21.6332 11.0282 20.0986 13.465 20.5578 16.0589C20.7068 18.4514 22.5394 20.2438 24.5292 21.3353C23.4578 24.0339 21.9876 26.8091 19.5347 28.4886C17.0697 30.0514 14.6047 27.2239 12.039 27.8724C10.7622 28.1181 9.57403 28.6739 8.31736 29.0002H7.30236C6.46861 28.6739 5.67111 28.2188 5.04278 27.5703C2.23944 24.6502 0.451111 20.7835 0 16.7638V14.6049C0.221528 11.0041 2.87583 7.47975 6.57333 6.99239Z" fill="white"/>
<path d="M81.1114 10.2427C83.9752 8.4705 87.8217 8.39398 90.7982 9.9487C92.6429 10.9234 93.7586 12.9011 93.8754 14.9593C92.651 14.9673 91.4306 14.9673 90.2102 14.9593C89.8839 14.2343 89.6866 13.3965 89.0663 12.8487C87.9667 11.8659 86.3677 11.7491 84.9821 12.0149C83.81 12.2768 82.505 13.1911 82.65 14.5404C82.5332 15.5997 83.4798 16.3086 84.3618 16.6308C86.561 17.4243 88.9495 17.5733 91.1124 18.4795C92.2925 18.9669 93.4485 19.7523 93.9238 20.9888C94.9227 23.1638 94.0527 25.8947 92.1677 27.2923C90.8707 28.2791 89.2757 28.7786 87.6848 29.0001H84.7686C82.932 28.6658 81.0309 28.0213 79.7581 26.5875C78.7793 25.5966 78.4289 24.2191 78.155 22.902C79.4681 22.8899 80.7811 22.9181 82.0942 23.0269C82.5413 24.1869 83.2461 25.4274 84.5592 25.7295C86.2549 26.092 88.3816 26.1806 89.7107 24.8716C90.6854 23.9211 90.4478 22.1368 89.2032 21.5366C86.275 20.1631 82.5574 20.5176 80.0924 18.1613C77.7764 15.9823 78.4893 11.8619 81.1114 10.2427Z" fill="white"/>
<path d="M107.312 10.1946C110.172 8.48278 113.922 8.39417 116.878 9.91667C119.105 11.0686 120.559 13.4128 120.829 15.8818C119.577 15.9019 118.328 15.91 117.075 15.9221C116.632 14.9353 116.29 13.8115 115.376 13.1429C114.095 12.136 112.307 12.0313 110.78 12.4381C108.847 13.0583 107.743 15.036 107.409 16.9331C107.115 19.2692 107.155 21.8792 108.641 23.8367C110.148 25.9069 113.358 26.2372 115.376 24.755C116.282 24.1065 116.636 23.0029 117.071 22.0282C118.324 22.0362 119.577 22.0322 120.829 22.0483C120.584 25.8747 117.104 28.7224 113.418 29.0003H111.308C109.153 28.7264 106.998 27.8403 105.556 26.1688C103.739 24.0824 103.075 21.2307 103.208 18.516C103.155 15.3219 104.529 11.9265 107.312 10.1946Z" fill="white"/>
<path d="M59.0714 9.18286C60.3965 9.18286 61.7216 9.18286 63.0468 9.1748C63.1676 13.5087 62.9139 17.8547 63.1757 22.1805C63.3408 25.5316 67.8398 26.5224 70.1357 24.6254C71.3641 23.6587 71.9159 22.0556 71.8757 20.5291C71.8918 16.747 71.8515 12.9609 71.8918 9.17883C73.225 9.18286 74.5582 9.18286 75.8913 9.17883C75.8994 15.6797 75.9155 22.1765 75.8913 28.6733C74.5904 28.6813 73.2934 28.6451 72.0005 28.5122C72.0005 27.4609 71.9965 26.4097 72.0005 25.3584C70.9976 27.3884 69.0159 28.8344 66.7282 28.9995H65.0043C63.2522 28.7498 61.484 27.9765 60.4368 26.5023C59.3291 25.0362 59.0432 23.1431 59.0633 21.3508C59.0713 17.2948 59.0633 13.2388 59.0714 9.18286Z" fill="white"/>
<path d="M96.7513 9.17956C98.02 9.18762 99.2888 9.19164 100.553 9.15137C100.662 9.71928 100.755 10.2912 100.767 10.8712C100.743 16.7598 100.771 22.6444 100.751 28.533C99.4136 28.5572 98.0764 28.5532 96.7392 28.5532C96.7432 22.0966 96.7191 15.6401 96.7513 9.17956Z" fill="white"/>
</svg>
