<svg width="38" height="38" viewBox="0 0 38 38" fill="none" xmlns="http://www.w3.org/2000/svg">
<g clip-path="url(#clip0)">
<path d="M37.207 2.527L23.3122 12.5723L21.0322 14.2245C19.8244 15.1167 18.1756 15.1167 16.9678 14.2245L14.6878 12.5723L0.77655 2.54355C1.54976 1.46137 2.8005 0.820343 4.1305 0.825316H33.8697C35.1897 0.825316 36.4305 1.4581 37.207 2.527Z" fill="#FC4E17"/>
<path d="M0.776458 2.54355L14.6878 12.5723L1.20604 26.054C0.431118 25.2775 -0.00172571 24.225 -9.28974e-05 23.1296V4.95573C-0.00335852 4.08834 0.267614 3.2441 0.776458 2.54355Z" fill="#FC4E17"/>
<path d="M38.0001 4.95574V23.1297C38.0018 24.2251 37.5689 25.2775 36.7941 26.0541L23.3123 12.5723L37.2071 2.52701C37.7226 3.2309 38.0001 4.08174 38.0001 4.95574Z" fill="#FC4E17"/>
<path d="M24.7826 30.5644C23.6856 30.5644 23.1304 29.7383 23.1304 28.0861C23.1568 25.7781 21.3081 23.8847 19 23.8582C16.6919 23.8317 14.7985 25.6806 14.7721 27.9886C14.7456 30.2967 16.5944 32.1901 18.9025 32.2166C20.1399 32.2314 21.3196 31.6961 22.1242 30.7577C22.6728 31.6978 23.6954 32.2595 24.7826 32.2166C28.087 32.2166 28.087 29.1072 28.087 28.0861C28.087 23.0668 24.0193 18.9992 19 18.9992C13.9807 18.9992 9.91302 23.0668 9.91302 28.0845C9.91302 33.1022 13.9807 37.1715 19 37.1715C21.3576 37.1715 23.6228 36.2545 25.3179 34.6155C25.6467 34.2967 25.6533 33.7713 25.3345 33.4441C25.0157 33.1154 24.4903 33.1087 24.1615 33.4276C21.2057 36.2776 16.4987 36.1934 13.6487 33.2376C10.7987 30.2818 10.8829 25.5748 13.8387 22.7248C16.7944 19.8748 21.5015 19.959 24.3515 22.9148C25.6897 24.3026 26.4365 26.1564 26.4349 28.0844C26.4348 29.9383 26.0185 30.5644 24.7826 30.5644ZM19 30.5644C17.632 30.5644 16.5218 29.4541 16.5218 28.0861C16.5218 26.7181 17.632 25.6079 19 25.6079C20.368 25.6079 21.4782 26.7165 21.4782 28.0861C21.4783 29.4558 20.368 30.5644 19 30.5644Z" fill="#455A64"/>
<path d="M23.3122 12.5723L21.0322 14.2244C19.8244 15.1166 18.1756 15.1166 16.9678 14.2244L14.6878 12.5723L1.20612 26.0539C1.98267 26.8288 3.03509 27.2617 4.13048 27.26H8.30224C8.75001 21.3518 13.9015 16.9256 19.808 17.3718C25.095 17.7716 29.2964 21.9731 29.6962 27.26H33.8696C34.965 27.2616 36.0175 26.8288 36.794 26.0539L23.3122 12.5723Z" fill="#FC4E17"/>
<path d="M33.8696 27.2601H30.5652C30.1092 27.2601 29.7392 26.8901 29.7392 26.4341C29.7392 25.9781 30.1092 25.608 30.5652 25.608H33.8696C35.2359 25.608 36.3478 24.4961 36.3478 23.1298V4.95574C36.3478 3.58937 35.2359 2.4775 33.8696 2.4775H4.1305C2.76413 2.4775 1.65226 3.58774 1.65226 4.95574V23.1297C1.65226 24.4961 2.7642 25.6079 4.1305 25.6079H7.43486C7.89086 25.6079 8.26092 25.9763 8.26092 26.434C8.26092 26.8916 7.89086 27.26 7.43486 27.26H4.1305C1.85376 27.2601 0 25.4063 0 23.1296V4.95574C0 2.67901 1.85376 0.825317 4.1305 0.825317H33.8697C36.1479 0.825317 38 2.67737 38 4.95574V23.1297C38 25.4063 36.1479 27.2601 33.8696 27.2601Z" fill="black"/>
<path d="M19.0017 15.7196C18.1177 15.7196 17.2338 15.4437 16.4788 14.8918L3.64795 5.62489C3.27619 5.35726 3.19358 4.84174 3.46129 4.47168C3.72729 4.09992 4.24274 4.01731 4.6145 4.28502L17.4519 13.5553C18.3821 14.2343 19.6229 14.2343 20.5464 13.5587L33.3855 4.28502C33.7555 4.01902 34.2711 4.09999 34.5387 4.47005C34.8063 4.8401 34.7221 5.35726 34.3537 5.62326L21.5163 14.8936C20.7661 15.4437 19.8839 15.7196 19.0017 15.7196Z" fill="black"/>
<path d="M4.13044 23.9557C3.91899 23.9557 3.70746 23.8748 3.54559 23.7145C3.22341 23.3923 3.22341 22.8686 3.54559 22.5465L11.8064 14.2856C12.1286 13.9634 12.6524 13.9634 12.9745 14.2856C13.2967 14.6078 13.2967 15.1316 12.9745 15.4537L4.71365 23.7145C4.55334 23.8748 4.34189 23.9557 4.13044 23.9557Z" fill="black"/>
<path d="M33.8696 23.9557C33.6581 23.9557 33.4466 23.8748 33.2847 23.7145L25.0239 15.4536C24.7017 15.1314 24.7017 14.6077 25.0239 14.2856C25.346 13.9634 25.8698 13.9634 26.1919 14.2856L34.4528 22.5464C34.7749 22.8686 34.7749 23.3923 34.4528 23.7144C34.2925 23.8748 34.0811 23.9557 33.8696 23.9557Z" fill="black"/>
<path d="M19.0049 37.1747C18.9537 37.1747 18.9025 37.1747 18.8513 37.1731C16.4242 37.1335 14.1591 36.1504 12.4706 34.4057C8.98618 30.8039 9.08199 25.0412 12.682 21.5584C14.4267 19.8698 16.7629 18.9611 19.1503 19.0024C21.5757 19.042 23.8425 20.0251 25.531 21.7682C27.1782 23.4716 28.0869 25.7152 28.0869 28.0861C28.0869 28.5421 27.7168 28.9122 27.2608 28.9122C26.8048 28.9122 26.4348 28.5421 26.4348 28.0861C26.4348 26.1465 25.6913 24.3109 24.3414 22.9165C22.9602 21.4907 21.1065 20.6861 19.1206 20.653C17.1744 20.653 15.2562 21.3651 13.8287 22.7464C10.8828 25.5964 10.8052 30.3117 13.6568 33.2575C15.0381 34.685 16.8918 35.4896 18.8777 35.521C20.8702 35.5904 22.7405 34.8106 24.1696 33.4294C24.4968 33.1138 25.0205 33.1204 25.3377 33.4492C25.6549 33.778 25.6467 34.3 25.3179 34.6172C23.6111 36.2693 21.3758 37.1747 19.0049 37.1747Z" fill="black"/>
<path d="M19 32.2166C16.7234 32.2166 14.8696 30.3628 14.8696 28.0862C14.8696 25.8095 16.7234 23.9557 19 23.9557C21.2767 23.9557 23.1305 25.8078 23.1305 28.0862C23.1305 30.3645 21.2768 32.2166 19 32.2166ZM19 25.6079C17.6337 25.6079 16.5218 26.7199 16.5218 28.0862C16.5218 29.4525 17.6338 30.5644 19 30.5644C20.3663 30.5644 21.4783 29.4525 21.4783 28.0862C21.4784 26.7198 20.3664 25.6079 19 25.6079Z" fill="black"/>
<path d="M24.7825 32.2166C22.714 32.2166 21.4781 30.6718 21.4781 28.0862C21.4781 27.6302 21.8482 27.2601 22.3042 27.2601C22.7602 27.2601 23.1303 27.6285 23.1303 28.0862C23.1303 29.7301 23.687 30.5644 24.7824 30.5644C26.0183 30.5644 26.4346 29.9382 26.4346 28.0862C26.4346 27.6302 26.8047 27.2601 27.2607 27.2601C27.7167 27.2601 28.0867 27.6285 28.0867 28.0862C28.0869 29.1072 28.0869 32.2166 24.7825 32.2166Z" fill="black"/>
</g>
<defs>
<clipPath id="clip0">
<rect width="38" height="38" fill="white"/>
</clipPath>
</defs>
</svg>
