<svg width="38" height="38" viewBox="0 0 38 38" fill="none" xmlns="http://www.w3.org/2000/svg">
<path d="M15.5218 26.8026C14.2999 26.0211 13.1673 25.108 12.1446 24.0793C11.2037 23.1451 10.3584 22.1195 9.62091 21.0178C8.8026 19.814 8.15482 18.5029 7.69596 17.1216L7.69368 17.1147L7.6937 17.1147C7.08423 15.2346 7.58847 13.1716 8.99618 11.7846L9.93128 10.8495C9.93163 10.8491 9.93198 10.8488 9.93233 10.8484C10.582 10.197 11.636 10.1937 12.2897 10.8405M15.5218 26.8026L10.64 11.555C10.9012 11.2926 11.3256 11.2917 11.5879 11.5529L11.59 11.555M15.5218 26.8026C16.8616 27.6818 18.3333 28.341 19.8814 28.7554L19.8945 28.7589L19.9077 28.7621C21.2994 29.0943 22.7478 28.8381 23.9269 28.0868V28.1288L24.0947 27.9752C24.3567 27.7937 24.604 27.5868 24.8327 27.3556L25.5498 26.6433L25.6022 26.5954C25.6209 26.5782 25.6354 26.5636 25.6415 26.5574C26.1693 26.0239 26.2643 25.2237 25.9269 24.5942M15.5218 26.8026L25.9269 24.5942M12.2897 10.8405C12.2909 10.8418 12.2922 10.843 12.2935 10.8443L12.2854 10.8364L12.2881 10.839C12.2885 10.8394 12.289 10.8399 12.2897 10.8405ZM12.2897 10.8405C12.2921 10.8429 12.296 10.8468 12.3009 10.8517M12.3009 10.8517L12.2971 10.8479L11.59 11.555M12.3009 10.8517C12.3079 10.8588 12.317 10.8682 12.3269 10.8791L11.59 11.555M12.3009 10.8517L15.2616 13.8124L14.5561 14.5211M11.59 11.555L14.5561 14.5211M25.9269 24.5942V23.4496L25.4034 23.9697M25.9269 24.5942L25.4034 23.9697M25.4034 23.9697L22.6632 21.2247L22.6617 21.2231L22.6615 21.2229L22.659 21.2204C22.0053 20.5695 20.9476 20.5719 20.2968 21.2256L20.2929 21.2296L18.6144 22.9344C18.4667 23.0784 18.2373 23.0975 18.0679 22.9793L17.4958 23.7995M25.4034 23.9697L21.9534 21.929C21.6911 21.6679 21.2667 21.6688 21.0055 21.9311L19.3219 23.6411C18.8314 24.1283 18.0628 24.1949 17.4958 23.7995M17.4958 23.7995C16.5146 23.1133 15.5962 22.3415 14.7514 21.4931C13.9937 20.738 13.2966 19.9245 12.6666 19.06C12.2518 18.4925 12.3147 17.7071 12.8144 17.2128L14.5561 15.4711L14.5582 15.469C14.8193 15.2067 14.8184 14.7823 14.5561 14.5211M17.4958 23.7995L18.0689 22.98C17.1361 22.3277 16.2631 21.594 15.46 20.7875L15.4572 20.7847C14.7367 20.0667 14.0738 19.2931 13.4748 18.4711L13.4739 18.4699C13.3513 18.3021 13.3699 18.0699 13.5176 17.9237L13.5215 17.9199L15.2632 16.1782L15.2658 16.1756L15.2668 16.1746C15.9174 15.5212 15.9153 14.4644 15.2626 13.8135L15.2632 13.814L14.5561 14.5211M25.6461 26.5526L25.6432 26.5556C25.6446 26.5542 25.6468 26.5519 25.6468 26.5519L25.6461 26.5526ZM27.2705 9.143L27.9775 8.43578L27.2705 9.143C30.0525 11.9241 31.6159 15.6964 31.6167 19.6301C31.6176 23.5645 30.0553 27.338 27.2737 30.1205C21.4818 35.9142 12.0899 35.9156 6.2962 30.1237C0.502514 24.3318 0.501116 14.9399 6.29301 9.14618C12.0849 3.3525 21.4769 3.35111 27.2705 9.143Z" fill="#FC4E17" stroke="black" stroke-width="2"/>
</svg>
