<svg width="166" height="50" viewBox="0 0 166 50" fill="none" xmlns="http://www.w3.org/2000/svg">
<rect x="5" y="4" width="160.73" height="45.4524" fill="#01A9B4"/>
<rect x="0.5" y="0.5" width="159.73" height="44.4524" stroke="#FBFD8A"/>
<path d="M40.38 26.332C40.604 26.332 40.78 26.396 40.908 26.524C41.044 26.644 41.112 26.812 41.112 27.028V29.368C41.112 29.688 41.084 29.936 41.028 30.112C40.98 30.288 40.892 30.428 40.764 30.532C40.636 30.636 40.444 30.724 40.188 30.796C39.876 30.892 39.516 30.968 39.108 31.024C38.708 31.08 38.328 31.108 37.968 31.108C37.072 31.108 36.296 30.936 35.64 30.592C34.984 30.24 34.48 29.74 34.128 29.092C33.776 28.436 33.6 27.66 33.6 26.764C33.6 25.884 33.772 25.12 34.116 24.472C34.468 23.816 34.968 23.312 35.616 22.96C36.264 22.608 37.02 22.432 37.884 22.432C38.996 22.432 39.916 22.72 40.644 23.296C40.764 23.392 40.848 23.488 40.896 23.584C40.944 23.68 40.968 23.8 40.968 23.944C40.968 24.152 40.908 24.332 40.788 24.484C40.676 24.628 40.54 24.7 40.38 24.7C40.276 24.7 40.18 24.684 40.092 24.652C40.012 24.62 39.912 24.568 39.792 24.496C39.456 24.288 39.148 24.14 38.868 24.052C38.588 23.964 38.28 23.92 37.944 23.92C36.312 23.92 35.496 24.868 35.496 26.764C35.496 27.74 35.708 28.468 36.132 28.948C36.556 29.428 37.196 29.668 38.052 29.668C38.516 29.668 38.976 29.608 39.432 29.488V27.628H38.328C38.096 27.628 37.916 27.572 37.788 27.46C37.66 27.348 37.596 27.188 37.596 26.98C37.596 26.772 37.66 26.612 37.788 26.5C37.916 26.388 38.096 26.332 38.328 26.332H40.38ZM47.2834 29.248C47.4434 29.248 47.5714 29.312 47.6674 29.44C47.7714 29.568 47.8234 29.732 47.8234 29.932C47.8234 30.068 47.7834 30.196 47.7034 30.316C47.6234 30.428 47.5114 30.524 47.3674 30.604C47.0954 30.748 46.7794 30.868 46.4194 30.964C46.0594 31.052 45.7274 31.096 45.4234 31.096C44.7834 31.096 44.2234 30.972 43.7434 30.724C43.2714 30.476 42.9074 30.124 42.6514 29.668C42.3954 29.204 42.2674 28.66 42.2674 28.036C42.2674 27.436 42.3914 26.904 42.6394 26.44C42.8874 25.976 43.2314 25.616 43.6714 25.36C44.1114 25.096 44.6114 24.964 45.1714 24.964C45.7074 24.964 46.1754 25.084 46.5754 25.324C46.9834 25.556 47.2994 25.892 47.5234 26.332C47.7474 26.764 47.8594 27.272 47.8594 27.856C47.8594 28.032 47.8154 28.168 47.7274 28.264C47.6474 28.352 47.5314 28.396 47.3794 28.396H44.0194C44.0754 28.868 44.2194 29.212 44.4514 29.428C44.6834 29.636 45.0154 29.74 45.4474 29.74C45.6794 29.74 45.8874 29.712 46.0714 29.656C46.2554 29.6 46.4594 29.524 46.6834 29.428C46.7954 29.38 46.9034 29.34 47.0074 29.308C47.1114 29.268 47.2034 29.248 47.2834 29.248ZM45.2194 26.212C44.8754 26.212 44.5994 26.324 44.3914 26.548C44.1834 26.764 44.0594 27.08 44.0194 27.496H46.3354C46.3114 27.072 46.2034 26.752 46.0114 26.536C45.8274 26.32 45.5634 26.212 45.2194 26.212ZM52.1126 29.752C52.3526 29.768 52.5286 29.828 52.6406 29.932C52.7526 30.036 52.8086 30.188 52.8086 30.388C52.8086 30.62 52.7166 30.796 52.5326 30.916C52.3486 31.036 52.0846 31.084 51.7406 31.06L51.4046 31.036C50.0046 30.924 49.3046 30.192 49.3046 28.84V26.464H48.8246C48.5606 26.464 48.3606 26.408 48.2246 26.296C48.0886 26.176 48.0206 26.008 48.0206 25.792C48.0206 25.568 48.0886 25.4 48.2246 25.288C48.3606 25.168 48.5606 25.108 48.8246 25.108H49.3046V24.172C49.3046 23.908 49.3846 23.7 49.5446 23.548C49.7126 23.396 49.9366 23.32 50.2166 23.32C50.4966 23.32 50.7166 23.396 50.8766 23.548C51.0366 23.7 51.1166 23.908 51.1166 24.172V25.108H51.9566C52.5006 25.108 52.7726 25.336 52.7726 25.792C52.7726 26.008 52.7046 26.176 52.5686 26.296C52.4326 26.408 52.2286 26.464 51.9566 26.464H51.1166V28.972C51.1166 29.212 51.1726 29.396 51.2846 29.524C51.3966 29.644 51.5606 29.712 51.7766 29.728L52.1126 29.752ZM60.8608 31.108C60.0288 31.108 59.3008 30.932 58.6768 30.58C58.0528 30.228 57.5728 29.724 57.2368 29.068C56.9008 28.412 56.7328 27.644 56.7328 26.764C56.7328 25.884 56.9008 25.12 57.2368 24.472C57.5728 23.816 58.0528 23.312 58.6768 22.96C59.3008 22.608 60.0288 22.432 60.8608 22.432C61.9088 22.432 62.8128 22.72 63.5728 23.296C63.6928 23.392 63.7768 23.488 63.8248 23.584C63.8728 23.68 63.8968 23.8 63.8968 23.944C63.8968 24.152 63.8368 24.332 63.7168 24.484C63.6048 24.628 63.4648 24.7 63.2968 24.7C63.1848 24.7 63.0848 24.688 62.9968 24.664C62.9168 24.632 62.8248 24.58 62.7208 24.508C62.4008 24.3 62.1048 24.152 61.8328 24.064C61.5608 23.968 61.2688 23.92 60.9568 23.92C60.1888 23.92 59.6088 24.16 59.2168 24.64C58.8328 25.112 58.6408 25.82 58.6408 26.764C58.6408 28.668 59.4128 29.62 60.9568 29.62C61.2528 29.62 61.5328 29.576 61.7968 29.488C62.0608 29.392 62.3688 29.24 62.7208 29.032C62.8408 28.96 62.9408 28.912 63.0208 28.888C63.1008 28.856 63.1928 28.84 63.2968 28.84C63.4648 28.84 63.6048 28.916 63.7168 29.068C63.8368 29.212 63.8968 29.388 63.8968 29.596C63.8968 29.74 63.8688 29.864 63.8128 29.968C63.7648 30.064 63.6848 30.156 63.5728 30.244C62.8128 30.82 61.9088 31.108 60.8608 31.108ZM67.6764 31.096C67.0524 31.096 66.5044 30.972 66.0324 30.724C65.5604 30.468 65.1964 30.112 64.9404 29.656C64.6844 29.192 64.5564 28.648 64.5564 28.024C64.5564 27.4 64.6844 26.86 64.9404 26.404C65.1964 25.94 65.5604 25.584 66.0324 25.336C66.5044 25.088 67.0524 24.964 67.6764 24.964C68.3004 24.964 68.8484 25.088 69.3204 25.336C69.7924 25.584 70.1564 25.94 70.4124 26.404C70.6684 26.86 70.7964 27.4 70.7964 28.024C70.7964 28.648 70.6684 29.192 70.4124 29.656C70.1564 30.112 69.7924 30.468 69.3204 30.724C68.8484 30.972 68.3004 31.096 67.6764 31.096ZM67.6764 29.716C68.5564 29.716 68.9964 29.152 68.9964 28.024C68.9964 27.456 68.8804 27.032 68.6484 26.752C68.4244 26.472 68.1004 26.332 67.6764 26.332C66.7964 26.332 66.3564 26.896 66.3564 28.024C66.3564 29.152 66.7964 29.716 67.6764 29.716ZM75.5951 24.964C76.2991 24.964 76.8231 25.172 77.1671 25.588C77.5111 25.996 77.6831 26.616 77.6831 27.448V30.22C77.6831 30.484 77.5991 30.692 77.4311 30.844C77.2711 30.996 77.0511 31.072 76.7711 31.072C76.4911 31.072 76.2711 30.996 76.1111 30.844C75.9511 30.692 75.8711 30.484 75.8711 30.22V27.532C75.8711 27.132 75.7951 26.84 75.6431 26.656C75.4991 26.472 75.2711 26.38 74.9591 26.38C74.5831 26.38 74.2791 26.5 74.0471 26.74C73.8231 26.98 73.7111 27.3 73.7111 27.7V30.22C73.7111 30.484 73.6311 30.692 73.4711 30.844C73.3111 30.996 73.0911 31.072 72.8111 31.072C72.5311 31.072 72.3071 30.996 72.1391 30.844C71.9791 30.692 71.8991 30.484 71.8991 30.22V25.816C71.8991 25.568 71.9831 25.368 72.1511 25.216C72.3271 25.064 72.5511 24.988 72.8231 24.988C73.0711 24.988 73.2711 25.064 73.4231 25.216C73.5831 25.36 73.6631 25.548 73.6631 25.78V25.948C73.8711 25.628 74.1391 25.384 74.4671 25.216C74.8031 25.048 75.1791 24.964 75.5951 24.964ZM81.7598 31.096C81.1518 31.096 80.6198 30.972 80.1638 30.724C79.7078 30.476 79.3558 30.124 79.1078 29.668C78.8678 29.212 78.7478 28.676 78.7478 28.06C78.7478 27.444 78.8758 26.904 79.1318 26.44C79.3958 25.968 79.7638 25.604 80.2358 25.348C80.7078 25.092 81.2518 24.964 81.8678 24.964C82.1878 24.964 82.5078 25.008 82.8278 25.096C83.1558 25.184 83.4478 25.308 83.7038 25.468C83.9518 25.62 84.0758 25.844 84.0758 26.14C84.0758 26.348 84.0278 26.52 83.9318 26.656C83.8358 26.784 83.7078 26.848 83.5478 26.848C83.4438 26.848 83.3438 26.832 83.2478 26.8C83.1598 26.76 83.0398 26.704 82.8878 26.632C82.7198 26.544 82.5678 26.476 82.4318 26.428C82.3038 26.38 82.1558 26.356 81.9878 26.356C81.5398 26.356 81.1958 26.5 80.9558 26.788C80.7238 27.068 80.6078 27.48 80.6078 28.024C80.6078 28.568 80.7238 28.984 80.9558 29.272C81.1958 29.56 81.5398 29.704 81.9878 29.704C82.1558 29.704 82.3038 29.684 82.4318 29.644C82.5598 29.596 82.7158 29.524 82.8998 29.428C83.0518 29.356 83.1718 29.304 83.2598 29.272C83.3478 29.232 83.4438 29.212 83.5478 29.212C83.6998 29.212 83.8238 29.28 83.9198 29.416C84.0238 29.552 84.0758 29.724 84.0758 29.932C84.0758 30.228 83.9518 30.448 83.7038 30.592C83.4478 30.752 83.1518 30.876 82.8158 30.964C82.4798 31.052 82.1278 31.096 81.7598 31.096ZM89.6935 29.248C89.8535 29.248 89.9815 29.312 90.0775 29.44C90.1815 29.568 90.2335 29.732 90.2335 29.932C90.2335 30.068 90.1935 30.196 90.1135 30.316C90.0335 30.428 89.9215 30.524 89.7775 30.604C89.5055 30.748 89.1895 30.868 88.8295 30.964C88.4695 31.052 88.1375 31.096 87.8335 31.096C87.1935 31.096 86.6335 30.972 86.1535 30.724C85.6815 30.476 85.3175 30.124 85.0615 29.668C84.8055 29.204 84.6775 28.66 84.6775 28.036C84.6775 27.436 84.8015 26.904 85.0495 26.44C85.2975 25.976 85.6415 25.616 86.0815 25.36C86.5215 25.096 87.0215 24.964 87.5815 24.964C88.1175 24.964 88.5855 25.084 88.9855 25.324C89.3935 25.556 89.7095 25.892 89.9335 26.332C90.1575 26.764 90.2695 27.272 90.2695 27.856C90.2695 28.032 90.2255 28.168 90.1375 28.264C90.0575 28.352 89.9415 28.396 89.7895 28.396H86.4295C86.4855 28.868 86.6295 29.212 86.8615 29.428C87.0935 29.636 87.4255 29.74 87.8575 29.74C88.0895 29.74 88.2975 29.712 88.4815 29.656C88.6655 29.6 88.8695 29.524 89.0935 29.428C89.2055 29.38 89.3135 29.34 89.4175 29.308C89.5215 29.268 89.6135 29.248 89.6935 29.248ZM87.6295 26.212C87.2855 26.212 87.0095 26.324 86.8015 26.548C86.5935 26.764 86.4695 27.08 86.4295 27.496H88.7455C88.7215 27.072 88.6135 26.752 88.4215 26.536C88.2375 26.32 87.9735 26.212 87.6295 26.212ZM94.88 24.988C95.12 24.972 95.308 25.028 95.444 25.156C95.588 25.276 95.66 25.46 95.66 25.708C95.66 25.972 95.596 26.168 95.468 26.296C95.34 26.424 95.112 26.504 94.784 26.536L94.424 26.572C93.984 26.62 93.664 26.764 93.464 27.004C93.272 27.244 93.176 27.552 93.176 27.928V30.22C93.176 30.5 93.088 30.712 92.912 30.856C92.744 31 92.532 31.072 92.276 31.072C92.012 31.072 91.792 31 91.616 30.856C91.448 30.712 91.364 30.5 91.364 30.22V25.816C91.364 25.552 91.452 25.348 91.628 25.204C91.804 25.06 92.016 24.988 92.264 24.988C92.504 24.988 92.704 25.06 92.864 25.204C93.024 25.34 93.104 25.532 93.104 25.78V26.104C93.248 25.76 93.464 25.496 93.752 25.312C94.048 25.128 94.368 25.024 94.712 25L94.88 24.988ZM100.042 29.752C100.282 29.768 100.458 29.828 100.57 29.932C100.682 30.036 100.738 30.188 100.738 30.388C100.738 30.62 100.646 30.796 100.462 30.916C100.278 31.036 100.014 31.084 99.6703 31.06L99.3343 31.036C97.9343 30.924 97.2343 30.192 97.2343 28.84V26.464H96.7543C96.4903 26.464 96.2903 26.408 96.1543 26.296C96.0183 26.176 95.9503 26.008 95.9503 25.792C95.9503 25.568 96.0183 25.4 96.1543 25.288C96.2903 25.168 96.4903 25.108 96.7543 25.108H97.2343V24.172C97.2343 23.908 97.3143 23.7 97.4743 23.548C97.6423 23.396 97.8663 23.32 98.1463 23.32C98.4263 23.32 98.6463 23.396 98.8063 23.548C98.9663 23.7 99.0463 23.908 99.0463 24.172V25.108H99.8863C100.43 25.108 100.702 25.336 100.702 25.792C100.702 26.008 100.634 26.176 100.498 26.296C100.362 26.408 100.158 26.464 99.8863 26.464H99.0463V28.972C99.0463 29.212 99.1023 29.396 99.2143 29.524C99.3263 29.644 99.4903 29.712 99.7063 29.728L100.042 29.752ZM105.779 31C105.499 31 105.283 30.924 105.131 30.772C104.979 30.62 104.903 30.404 104.903 30.124V23.416C104.903 23.136 104.979 22.92 105.131 22.768C105.283 22.616 105.499 22.54 105.779 22.54H108.191C109.111 22.54 109.903 22.708 110.567 23.044C111.231 23.38 111.739 23.864 112.091 24.496C112.443 25.128 112.619 25.884 112.619 26.764C112.619 27.644 112.443 28.404 112.091 29.044C111.747 29.676 111.243 30.16 110.579 30.496C109.915 30.832 109.119 31 108.191 31H105.779ZM108.059 29.488C109.859 29.488 110.759 28.58 110.759 26.764C110.759 24.956 109.859 24.052 108.059 24.052H106.775V29.488H108.059ZM116.563 24.964C117.427 24.964 118.067 25.176 118.483 25.6C118.899 26.016 119.107 26.656 119.107 27.52V30.232C119.107 30.496 119.031 30.704 118.879 30.856C118.727 31 118.515 31.072 118.243 31.072C117.987 31.072 117.779 30.996 117.619 30.844C117.467 30.684 117.391 30.48 117.391 30.232V30.148C117.271 30.444 117.071 30.676 116.791 30.844C116.511 31.012 116.183 31.096 115.807 31.096C115.407 31.096 115.043 31.016 114.715 30.856C114.395 30.696 114.139 30.472 113.947 30.184C113.763 29.896 113.671 29.576 113.671 29.224C113.671 28.792 113.779 28.452 113.995 28.204C114.219 27.956 114.575 27.776 115.063 27.664C115.551 27.552 116.219 27.496 117.067 27.496H117.379V27.28C117.379 26.944 117.303 26.7 117.151 26.548C117.007 26.396 116.763 26.32 116.419 26.32C116.075 26.32 115.579 26.44 114.931 26.68C114.747 26.768 114.591 26.812 114.463 26.812C114.287 26.812 114.147 26.752 114.043 26.632C113.939 26.504 113.887 26.34 113.887 26.14C113.887 25.98 113.923 25.848 113.995 25.744C114.067 25.64 114.183 25.544 114.343 25.456C114.623 25.304 114.963 25.184 115.363 25.096C115.771 25.008 116.171 24.964 116.563 24.964ZM116.203 29.848C116.555 29.848 116.839 29.732 117.055 29.5C117.271 29.26 117.379 28.952 117.379 28.576V28.372H117.175C116.527 28.372 116.071 28.424 115.807 28.528C115.551 28.632 115.423 28.82 115.423 29.092C115.423 29.316 115.495 29.5 115.639 29.644C115.791 29.78 115.979 29.848 116.203 29.848ZM123.738 29.752C123.978 29.768 124.154 29.828 124.266 29.932C124.378 30.036 124.434 30.188 124.434 30.388C124.434 30.62 124.342 30.796 124.158 30.916C123.974 31.036 123.71 31.084 123.366 31.06L123.03 31.036C121.63 30.924 120.93 30.192 120.93 28.84V26.464H120.45C120.186 26.464 119.986 26.408 119.85 26.296C119.714 26.176 119.646 26.008 119.646 25.792C119.646 25.568 119.714 25.4 119.85 25.288C119.986 25.168 120.186 25.108 120.45 25.108H120.93V24.172C120.93 23.908 121.01 23.7 121.17 23.548C121.338 23.396 121.562 23.32 121.842 23.32C122.122 23.32 122.342 23.396 122.502 23.548C122.662 23.7 122.742 23.908 122.742 24.172V25.108H123.582C124.126 25.108 124.398 25.336 124.398 25.792C124.398 26.008 124.33 26.176 124.194 26.296C124.058 26.408 123.854 26.464 123.582 26.464H122.742V28.972C122.742 29.212 122.798 29.396 122.91 29.524C123.022 29.644 123.186 29.712 123.402 29.728L123.738 29.752ZM129.83 29.248C129.99 29.248 130.118 29.312 130.214 29.44C130.318 29.568 130.37 29.732 130.37 29.932C130.37 30.068 130.33 30.196 130.25 30.316C130.17 30.428 130.058 30.524 129.914 30.604C129.642 30.748 129.326 30.868 128.966 30.964C128.606 31.052 128.274 31.096 127.97 31.096C127.33 31.096 126.77 30.972 126.29 30.724C125.818 30.476 125.454 30.124 125.198 29.668C124.942 29.204 124.814 28.66 124.814 28.036C124.814 27.436 124.938 26.904 125.186 26.44C125.434 25.976 125.778 25.616 126.218 25.36C126.658 25.096 127.158 24.964 127.718 24.964C128.254 24.964 128.722 25.084 129.122 25.324C129.53 25.556 129.846 25.892 130.07 26.332C130.294 26.764 130.406 27.272 130.406 27.856C130.406 28.032 130.362 28.168 130.274 28.264C130.194 28.352 130.078 28.396 129.926 28.396H126.566C126.622 28.868 126.766 29.212 126.998 29.428C127.23 29.636 127.562 29.74 127.994 29.74C128.226 29.74 128.434 29.712 128.618 29.656C128.802 29.6 129.006 29.524 129.23 29.428C129.342 29.38 129.45 29.34 129.554 29.308C129.658 29.268 129.75 29.248 129.83 29.248ZM127.766 26.212C127.422 26.212 127.146 26.324 126.938 26.548C126.73 26.764 126.606 27.08 126.566 27.496H128.882C128.858 27.072 128.75 26.752 128.558 26.536C128.374 26.32 128.11 26.212 127.766 26.212ZM133.733 31.096C133.245 31.096 132.821 31.056 132.461 30.976C132.101 30.896 131.785 30.768 131.513 30.592C131.393 30.52 131.301 30.424 131.237 30.304C131.173 30.184 131.141 30.048 131.141 29.896C131.141 29.712 131.193 29.56 131.297 29.44C131.401 29.312 131.529 29.248 131.681 29.248C131.785 29.248 131.889 29.268 131.993 29.308C132.097 29.34 132.205 29.38 132.317 29.428C132.541 29.532 132.761 29.616 132.977 29.68C133.193 29.736 133.461 29.764 133.781 29.764C134.061 29.764 134.277 29.72 134.429 29.632C134.589 29.544 134.669 29.424 134.669 29.272C134.669 29.16 134.633 29.072 134.561 29.008C134.497 28.936 134.373 28.872 134.189 28.816C134.005 28.76 133.713 28.692 133.313 28.612C132.601 28.476 132.089 28.272 131.777 28C131.465 27.728 131.309 27.348 131.309 26.86C131.309 26.5 131.417 26.176 131.633 25.888C131.857 25.6 132.161 25.376 132.545 25.216C132.929 25.048 133.361 24.964 133.841 24.964C134.185 24.964 134.521 25.008 134.849 25.096C135.177 25.184 135.469 25.308 135.725 25.468C135.973 25.62 136.097 25.844 136.097 26.14C136.097 26.332 136.045 26.492 135.941 26.62C135.837 26.748 135.709 26.812 135.557 26.812C135.373 26.812 135.153 26.74 134.897 26.596C134.697 26.492 134.513 26.416 134.345 26.368C134.185 26.312 133.993 26.284 133.769 26.284C133.521 26.284 133.325 26.332 133.181 26.428C133.037 26.516 132.965 26.64 132.965 26.8C132.965 26.968 133.049 27.096 133.217 27.184C133.385 27.272 133.709 27.36 134.189 27.448C134.725 27.552 135.145 27.68 135.449 27.832C135.753 27.976 135.973 28.16 136.109 28.384C136.245 28.608 136.313 28.892 136.313 29.236C136.313 29.804 136.077 30.256 135.605 30.592C135.141 30.928 134.517 31.096 133.733 31.096Z" fill="#D8F7F9"/>
</svg>
