<svg width="34" height="38" viewBox="0 0 34 38" fill="none" xmlns="http://www.w3.org/2000/svg">
<path d="M19.7757 24.0219L19.7758 24.0304C19.7766 24.9903 19.4415 25.8848 18.8028 26.5444C18.1602 27.208 17.2642 27.5778 16.2558 27.5778C14.1857 27.5778 12.765 26.0019 12.765 24.0313C12.765 22.8312 13.2827 21.8015 14.1307 21.1651H13.532L13.4934 20.2052L13.4646 19.4878C13.3663 17.7696 13.9557 16.0703 15.3506 14.4026L15.3513 14.4018C15.8073 13.8576 16.1644 13.4228 16.4141 13.019C16.6601 12.6211 16.7415 12.3457 16.7415 12.1312C16.7415 11.8773 16.6677 11.7704 16.5904 11.7038C16.4869 11.6146 16.2312 11.4789 15.6751 11.4543C14.9455 11.4591 14.0373 11.7375 13.5002 12.113L12.3798 12.8962L11.9726 11.5913L11.0194 8.53623L10.7819 7.77533L11.4707 7.37421C12.6338 6.69688 14.4848 6.09521 16.6475 6.09521C18.6779 6.09521 20.2842 6.65818 21.3939 7.66679C22.5083 8.6796 23.0218 10.0524 23.022 11.4614C23.022 11.4616 23.022 11.4618 23.022 11.462H22.022C22.0233 13.538 20.768 14.9217 19.7158 16.0814C19.6914 16.1084 19.667 16.1353 19.6427 16.162L19.7757 24.0219ZM19.7757 24.0219L19.7756 24.0134C19.7584 23.054 19.4297 22.1624 18.7916 21.5038C18.6719 21.3801 18.5435 21.2671 18.4074 21.1651H19.2168V20.1651V19.6645V19.653L19.2165 19.6414C19.1941 18.6708 19.4948 17.8211 20.3845 16.8327L19.7757 24.0219ZM10.0075 31.1696L10.0248 30.5596L9.49032 30.2652C4.66868 27.6097 1.40442 22.4875 1.40442 16.5962C1.40442 7.98207 8.38649 1 17.0006 1C25.6148 1 32.5968 7.98207 32.5968 16.5962C32.5968 25.2103 25.6148 32.1924 17.0006 32.1924C16.9803 32.1924 16.9529 32.1911 16.8935 32.1867C16.8883 32.1864 16.8827 32.1859 16.8767 32.1855C16.8258 32.1817 16.7465 32.1759 16.6659 32.1741L16.3704 32.1674L16.1188 32.3225L9.86501 36.1768L10.0075 31.1696Z" fill="#FC4E17" stroke="black" stroke-width="2"/>
</svg>
