<svg width="55" height="14" viewBox="0 0 55 14" fill="none" xmlns="http://www.w3.org/2000/svg">
<path d="M8.1091 0H8.40611C8.45928 1.56022 7.1814 3.16077 5.55518 3.13327C5.52768 1.63539 6.64972 0.287843 8.1091 0Z" fill="white"/>
<path d="M44.4489 0.801183C45.129 0.348335 46.1227 1.03952 45.9779 1.83522C45.9522 2.40174 45.4077 2.70608 44.9164 2.82525C44.6524 2.70975 44.3498 2.64191 44.1573 2.4109C43.7008 1.95439 43.8603 1.07069 44.4489 0.801183Z" fill="white"/>
<path d="M12.9346 0.880012C13.6551 0.881845 14.3757 0.883679 15.098 0.874512C16.4547 4.11412 17.7601 7.37573 19.0893 10.6263C20.4552 7.39223 21.7368 4.12329 23.0843 0.881845C23.8067 0.880012 24.5272 0.880012 25.2477 0.883679C25.2569 4.92081 25.2495 8.95978 25.2514 12.9969C24.683 12.9951 24.1147 12.9932 23.5445 13.0097C23.5096 10.058 23.572 7.10622 23.5133 4.15445C23.3868 4.38363 23.2695 4.61647 23.165 4.85664C22.0576 7.5719 20.9301 10.2798 19.8172 12.9932C19.3295 12.9987 18.84 13.0006 18.3523 12.9712C17.1863 9.99382 15.9066 7.06038 14.7259 4.09029C14.6507 7.05305 14.7112 10.0195 14.6947 12.9841C14.1062 12.9987 13.5195 12.9969 12.931 12.9987C12.931 8.95795 12.9255 4.91898 12.9346 0.880012Z" fill="white"/>
<path d="M2.9921 3.1829C3.94547 3.01422 4.78149 3.58991 5.68719 3.74575C6.54339 3.56424 7.33908 3.06739 8.24111 3.14439C9.24581 3.12239 10.1772 3.64124 10.8115 4.39477C9.84716 5.01996 9.14864 6.12916 9.35765 7.30987C9.42548 8.3989 10.2597 9.21476 11.1654 9.71161C10.6777 10.94 10.0085 12.2032 8.89196 12.9677C7.76993 13.6791 6.64789 12.392 5.48002 12.6872C4.89883 12.799 4.35798 13.0521 3.78596 13.2006H3.32394C2.94443 13.0521 2.58142 12.8449 2.29541 12.5497C1.01937 11.2205 0.20534 9.46044 0 7.63071V6.64801C0.100837 5.00896 1.30904 3.40474 2.9921 3.1829Z" fill="white"/>
<path d="M36.9209 4.66233C38.2245 3.85564 39.9753 3.8208 41.3302 4.52849C42.1699 4.97218 42.6778 5.87237 42.7309 6.80924C42.1736 6.8129 41.6181 6.8129 41.0625 6.80924C40.914 6.47923 40.8242 6.09788 40.5419 5.84854C40.0413 5.40119 39.3135 5.34802 38.6828 5.46903C38.1493 5.5882 37.5553 6.00438 37.6213 6.61856C37.5681 7.10075 37.9989 7.42342 38.4005 7.5701C39.4015 7.93127 40.4887 7.99911 41.4732 8.41162C42.0104 8.63346 42.5366 8.99098 42.7529 9.55383C43.2076 10.5439 42.8116 11.7869 41.9536 12.4231C41.3632 12.8723 40.6372 13.0996 39.913 13.2004H38.5856C37.7496 13.0483 36.8842 12.7549 36.3049 12.1022C35.8594 11.6512 35.6999 11.0242 35.5752 10.4247C36.1729 10.4192 36.7706 10.432 37.3683 10.4815C37.5718 11.0095 37.8926 11.5742 38.4903 11.7117C39.2622 11.8767 40.2302 11.9171 40.8352 11.3212C41.2789 10.8885 41.1707 10.0763 40.6042 9.80317C39.2713 9.17798 37.5791 9.33932 36.4571 8.26678C35.4029 7.27492 35.7274 5.39936 36.9209 4.66233Z" fill="white"/>
<path d="M48.8471 4.64042C50.1488 3.86123 51.8557 3.82089 53.2014 4.51392C54.2153 5.03827 54.8772 6.1053 55 7.22917C54.4298 7.23834 53.8615 7.24201 53.2913 7.24751C53.0896 6.79833 52.9338 6.28681 52.5176 5.98247C51.9346 5.52412 51.1205 5.47645 50.4257 5.66162C49.5457 5.94396 49.0433 6.84416 48.8911 7.70769C48.7573 8.77106 48.7756 9.9591 49.4522 10.8501C50.1378 11.7925 51.5991 11.9428 52.5176 11.2681C52.9301 10.973 53.0914 10.4706 53.2895 10.0269C53.8596 10.0306 54.4298 10.0288 55 10.0361C54.8882 11.7778 53.3041 13.074 51.6266 13.2005H50.6659C49.685 13.0759 48.7041 12.6725 48.0478 11.9117C47.2209 10.962 46.9184 9.66392 46.9789 8.42821C46.9551 6.97433 47.5803 5.42878 48.8471 4.64042Z" fill="white"/>
<path d="M26.8885 4.18006C27.4917 4.18006 28.0949 4.18006 28.6981 4.17639C28.7531 6.14912 28.6376 8.12736 28.7567 10.0964C28.8319 11.6218 30.8798 12.0728 31.9248 11.2093C32.484 10.7693 32.7352 10.0396 32.7169 9.34473C32.7242 7.62317 32.7059 5.89978 32.7242 4.17823C33.3311 4.18006 33.9379 4.18006 34.5448 4.17823C34.5484 7.13732 34.5558 10.0946 34.5448 13.0519C33.9526 13.0555 33.3622 13.039 32.7737 12.9785C32.7737 12.5 32.7719 12.0215 32.7737 11.543C32.3172 12.467 31.4152 13.1252 30.3738 13.2004H29.5891C28.7916 13.0867 27.9867 12.7347 27.51 12.0637C27.0058 11.3963 26.8757 10.5346 26.8848 9.71874C26.8885 7.87251 26.8848 6.02629 26.8885 4.18006Z" fill="white"/>
<path d="M44.04 4.17836C44.6175 4.18203 45.195 4.18386 45.7707 4.16553C45.8202 4.42404 45.8624 4.68438 45.8679 4.94839C45.8569 7.62881 45.8697 10.3074 45.8605 12.9878C45.2519 12.9988 44.6432 12.997 44.0345 12.997C44.0363 10.0581 44.0253 7.11913 44.04 4.17836Z" fill="white"/>
</svg>
