<svg width="252" height="75" viewBox="0 0 252 75" fill="none" xmlns="http://www.w3.org/2000/svg">
<rect x="0.5" y="0.5" width="243" height="68" stroke="#FBFD8A"/>
<rect x="8" y="6" width="244" height="69" fill="#01A9B4"/>
<path d="M55.3 39.22C55.6733 39.22 55.9667 39.3267 56.18 39.54C56.4067 39.74 56.52 40.02 56.52 40.38V44.28C56.52 44.8133 56.4733 45.2267 56.38 45.52C56.3 45.8133 56.1533 46.0467 55.94 46.22C55.7267 46.3933 55.4067 46.54 54.98 46.66C54.46 46.82 53.86 46.9467 53.18 47.04C52.5133 47.1333 51.88 47.18 51.28 47.18C49.7867 47.18 48.4933 46.8933 47.4 46.32C46.3067 45.7333 45.4667 44.9 44.88 43.82C44.2933 42.7267 44 41.4333 44 39.94C44 38.4733 44.2867 37.2 44.86 36.12C45.4467 35.0267 46.28 34.1867 47.36 33.6C48.44 33.0133 49.7 32.72 51.14 32.72C52.9933 32.72 54.5267 33.2 55.74 34.16C55.94 34.32 56.08 34.48 56.16 34.64C56.24 34.8 56.28 35 56.28 35.24C56.28 35.5867 56.18 35.8867 55.98 36.14C55.7933 36.38 55.5667 36.5 55.3 36.5C55.1267 36.5 54.9667 36.4733 54.82 36.42C54.6867 36.3667 54.52 36.28 54.32 36.16C53.76 35.8133 53.2467 35.5667 52.78 35.42C52.3133 35.2733 51.8 35.2 51.24 35.2C48.52 35.2 47.16 36.78 47.16 39.94C47.16 41.5667 47.5133 42.78 48.22 43.58C48.9267 44.38 49.9933 44.78 51.42 44.78C52.1933 44.78 52.96 44.68 53.72 44.48V41.38H51.88C51.4933 41.38 51.1933 41.2867 50.98 41.1C50.7667 40.9133 50.66 40.6467 50.66 40.3C50.66 39.9533 50.7667 39.6867 50.98 39.5C51.1933 39.3133 51.4933 39.22 51.88 39.22H55.3ZM66.8056 44.08C67.0723 44.08 67.2856 44.1867 67.4456 44.4C67.619 44.6133 67.7056 44.8867 67.7056 45.22C67.7056 45.4467 67.639 45.66 67.5056 45.86C67.3723 46.0467 67.1856 46.2067 66.9456 46.34C66.4923 46.58 65.9656 46.78 65.3656 46.94C64.7656 47.0867 64.2123 47.16 63.7056 47.16C62.639 47.16 61.7056 46.9533 60.9056 46.54C60.119 46.1267 59.5123 45.54 59.0856 44.78C58.659 44.0067 58.4456 43.1 58.4456 42.06C58.4456 41.06 58.6523 40.1733 59.0656 39.4C59.479 38.6267 60.0523 38.0267 60.7856 37.6C61.519 37.16 62.3523 36.94 63.2856 36.94C64.179 36.94 64.959 37.14 65.6256 37.54C66.3056 37.9267 66.8323 38.4867 67.2056 39.22C67.579 39.94 67.7656 40.7867 67.7656 41.76C67.7656 42.0533 67.6923 42.28 67.5456 42.44C67.4123 42.5867 67.219 42.66 66.9656 42.66H61.3656C61.459 43.4467 61.699 44.02 62.0856 44.38C62.4723 44.7267 63.0256 44.9 63.7456 44.9C64.1323 44.9 64.479 44.8533 64.7856 44.76C65.0923 44.6667 65.4323 44.54 65.8056 44.38C65.9923 44.3 66.1723 44.2333 66.3456 44.18C66.519 44.1133 66.6723 44.08 66.8056 44.08ZM63.3656 39.02C62.7923 39.02 62.3323 39.2067 61.9856 39.58C61.639 39.94 61.4323 40.4667 61.3656 41.16H65.2256C65.1856 40.4533 65.0056 39.92 64.6856 39.56C64.379 39.2 63.939 39.02 63.3656 39.02ZM74.8544 44.92C75.2544 44.9467 75.5477 45.0467 75.7344 45.22C75.921 45.3933 76.0144 45.6467 76.0144 45.98C76.0144 46.3667 75.861 46.66 75.5544 46.86C75.2477 47.06 74.8077 47.14 74.2344 47.1L73.6744 47.06C71.341 46.8733 70.1744 45.6533 70.1744 43.4V39.44H69.3744C68.9344 39.44 68.601 39.3467 68.3744 39.16C68.1477 38.96 68.0344 38.68 68.0344 38.32C68.0344 37.9467 68.1477 37.6667 68.3744 37.48C68.601 37.28 68.9344 37.18 69.3744 37.18H70.1744V35.62C70.1744 35.18 70.3077 34.8333 70.5744 34.58C70.8544 34.3267 71.2277 34.2 71.6944 34.2C72.161 34.2 72.5277 34.3267 72.7944 34.58C73.061 34.8333 73.1944 35.18 73.1944 35.62V37.18H74.5944C75.501 37.18 75.9544 37.56 75.9544 38.32C75.9544 38.68 75.841 38.96 75.6144 39.16C75.3877 39.3467 75.0477 39.44 74.5944 39.44H73.1944V43.62C73.1944 44.02 73.2877 44.3267 73.4744 44.54C73.661 44.74 73.9344 44.8533 74.2944 44.88L74.8544 44.92ZM89.4347 47.18C88.048 47.18 86.8347 46.8867 85.7947 46.3C84.7547 45.7133 83.9547 44.8733 83.3947 43.78C82.8347 42.6867 82.5547 41.4067 82.5547 39.94C82.5547 38.4733 82.8347 37.2 83.3947 36.12C83.9547 35.0267 84.7547 34.1867 85.7947 33.6C86.8347 33.0133 88.048 32.72 89.4347 32.72C91.1814 32.72 92.688 33.2 93.9547 34.16C94.1547 34.32 94.2947 34.48 94.3747 34.64C94.4547 34.8 94.4947 35 94.4947 35.24C94.4947 35.5867 94.3947 35.8867 94.1947 36.14C94.008 36.38 93.7747 36.5 93.4947 36.5C93.308 36.5 93.1414 36.48 92.9947 36.44C92.8614 36.3867 92.708 36.3 92.5347 36.18C92.0014 35.8333 91.508 35.5867 91.0547 35.44C90.6014 35.28 90.1147 35.2 89.5947 35.2C88.3147 35.2 87.348 35.6 86.6947 36.4C86.0547 37.1867 85.7347 38.3667 85.7347 39.94C85.7347 43.1133 87.0214 44.7 89.5947 44.7C90.088 44.7 90.5547 44.6267 90.9947 44.48C91.4347 44.32 91.948 44.0667 92.5347 43.72C92.7347 43.6 92.9014 43.52 93.0347 43.48C93.168 43.4267 93.3214 43.4 93.4947 43.4C93.7747 43.4 94.008 43.5267 94.1947 43.78C94.3947 44.02 94.4947 44.3133 94.4947 44.66C94.4947 44.9 94.448 45.1067 94.3547 45.28C94.2747 45.44 94.1414 45.5933 93.9547 45.74C92.688 46.7 91.1814 47.18 89.4347 47.18ZM100.794 47.16C99.7541 47.16 98.8407 46.9533 98.0541 46.54C97.2674 46.1133 96.6607 45.52 96.2341 44.76C95.8074 43.9867 95.5941 43.08 95.5941 42.04C95.5941 41 95.8074 40.1 96.2341 39.34C96.6607 38.5667 97.2674 37.9733 98.0541 37.56C98.8407 37.1467 99.7541 36.94 100.794 36.94C101.834 36.94 102.747 37.1467 103.534 37.56C104.321 37.9733 104.927 38.5667 105.354 39.34C105.781 40.1 105.994 41 105.994 42.04C105.994 43.08 105.781 43.9867 105.354 44.76C104.927 45.52 104.321 46.1133 103.534 46.54C102.747 46.9533 101.834 47.16 100.794 47.16ZM100.794 44.86C102.261 44.86 102.994 43.92 102.994 42.04C102.994 41.0933 102.801 40.3867 102.414 39.92C102.041 39.4533 101.501 39.22 100.794 39.22C99.3274 39.22 98.5941 40.16 98.5941 42.04C98.5941 43.92 99.3274 44.86 100.794 44.86ZM113.992 36.94C115.165 36.94 116.039 37.2867 116.612 37.98C117.185 38.66 117.472 39.6933 117.472 41.08V45.7C117.472 46.14 117.332 46.4867 117.052 46.74C116.785 46.9933 116.419 47.12 115.952 47.12C115.485 47.12 115.119 46.9933 114.852 46.74C114.585 46.4867 114.452 46.14 114.452 45.7V41.22C114.452 40.5533 114.325 40.0667 114.072 39.76C113.832 39.4533 113.452 39.3 112.932 39.3C112.305 39.3 111.799 39.5 111.412 39.9C111.039 40.3 110.852 40.8333 110.852 41.5V45.7C110.852 46.14 110.719 46.4867 110.452 46.74C110.185 46.9933 109.819 47.12 109.352 47.12C108.885 47.12 108.512 46.9933 108.232 46.74C107.965 46.4867 107.832 46.14 107.832 45.7V38.36C107.832 37.9467 107.972 37.6133 108.252 37.36C108.545 37.1067 108.919 36.98 109.372 36.98C109.785 36.98 110.119 37.1067 110.372 37.36C110.639 37.6 110.772 37.9133 110.772 38.3V38.58C111.119 38.0467 111.565 37.64 112.112 37.36C112.672 37.08 113.299 36.94 113.992 36.94ZM124.266 47.16C123.253 47.16 122.366 46.9533 121.606 46.54C120.846 46.1267 120.26 45.54 119.846 44.78C119.446 44.02 119.246 43.1267 119.246 42.1C119.246 41.0733 119.46 40.1733 119.886 39.4C120.326 38.6133 120.94 38.0067 121.726 37.58C122.513 37.1533 123.42 36.94 124.446 36.94C124.98 36.94 125.513 37.0133 126.046 37.16C126.593 37.3067 127.08 37.5133 127.506 37.78C127.92 38.0333 128.126 38.4067 128.126 38.9C128.126 39.2467 128.046 39.5333 127.886 39.76C127.726 39.9733 127.513 40.08 127.246 40.08C127.073 40.08 126.906 40.0533 126.746 40C126.6 39.9333 126.4 39.84 126.146 39.72C125.866 39.5733 125.613 39.46 125.386 39.38C125.173 39.3 124.926 39.26 124.646 39.26C123.9 39.26 123.326 39.5 122.926 39.98C122.54 40.4467 122.346 41.1333 122.346 42.04C122.346 42.9467 122.54 43.64 122.926 44.12C123.326 44.6 123.9 44.84 124.646 44.84C124.926 44.84 125.173 44.8067 125.386 44.74C125.6 44.66 125.86 44.54 126.166 44.38C126.42 44.26 126.62 44.1733 126.766 44.12C126.913 44.0533 127.073 44.02 127.246 44.02C127.5 44.02 127.706 44.1333 127.866 44.36C128.04 44.5867 128.126 44.8733 128.126 45.22C128.126 45.7133 127.92 46.08 127.506 46.32C127.08 46.5867 126.586 46.7933 126.026 46.94C125.466 47.0867 124.88 47.16 124.266 47.16ZM137.489 44.08C137.756 44.08 137.969 44.1867 138.129 44.4C138.303 44.6133 138.389 44.8867 138.389 45.22C138.389 45.4467 138.323 45.66 138.189 45.86C138.056 46.0467 137.869 46.2067 137.629 46.34C137.176 46.58 136.649 46.78 136.049 46.94C135.449 47.0867 134.896 47.16 134.389 47.16C133.323 47.16 132.389 46.9533 131.589 46.54C130.803 46.1267 130.196 45.54 129.769 44.78C129.343 44.0067 129.129 43.1 129.129 42.06C129.129 41.06 129.336 40.1733 129.749 39.4C130.163 38.6267 130.736 38.0267 131.469 37.6C132.203 37.16 133.036 36.94 133.969 36.94C134.863 36.94 135.643 37.14 136.309 37.54C136.989 37.9267 137.516 38.4867 137.889 39.22C138.263 39.94 138.449 40.7867 138.449 41.76C138.449 42.0533 138.376 42.28 138.229 42.44C138.096 42.5867 137.903 42.66 137.649 42.66H132.049C132.143 43.4467 132.383 44.02 132.769 44.38C133.156 44.7267 133.709 44.9 134.429 44.9C134.816 44.9 135.163 44.8533 135.469 44.76C135.776 44.6667 136.116 44.54 136.489 44.38C136.676 44.3 136.856 44.2333 137.029 44.18C137.203 44.1133 137.356 44.08 137.489 44.08ZM134.049 39.02C133.476 39.02 133.016 39.2067 132.669 39.58C132.323 39.94 132.116 40.4667 132.049 41.16H135.909C135.869 40.4533 135.689 39.92 135.369 39.56C135.063 39.2 134.623 39.02 134.049 39.02ZM146.133 36.98C146.533 36.9533 146.847 37.0467 147.073 37.26C147.313 37.46 147.433 37.7667 147.433 38.18C147.433 38.62 147.327 38.9467 147.113 39.16C146.9 39.3733 146.52 39.5067 145.973 39.56L145.373 39.62C144.64 39.7 144.107 39.94 143.773 40.34C143.453 40.74 143.293 41.2533 143.293 41.88V45.7C143.293 46.1667 143.147 46.52 142.853 46.76C142.573 47 142.22 47.12 141.793 47.12C141.353 47.12 140.987 47 140.693 46.76C140.413 46.52 140.273 46.1667 140.273 45.7V38.36C140.273 37.92 140.42 37.58 140.713 37.34C141.007 37.1 141.36 36.98 141.773 36.98C142.173 36.98 142.507 37.1 142.773 37.34C143.04 37.5667 143.173 37.8867 143.173 38.3V38.84C143.413 38.2667 143.773 37.8267 144.253 37.52C144.747 37.2133 145.28 37.04 145.853 37L146.133 36.98ZM154.737 44.92C155.137 44.9467 155.431 45.0467 155.617 45.22C155.804 45.3933 155.897 45.6467 155.897 45.98C155.897 46.3667 155.744 46.66 155.437 46.86C155.131 47.06 154.691 47.14 154.117 47.1L153.557 47.06C151.224 46.8733 150.057 45.6533 150.057 43.4V39.44H149.257C148.817 39.44 148.484 39.3467 148.257 39.16C148.031 38.96 147.917 38.68 147.917 38.32C147.917 37.9467 148.031 37.6667 148.257 37.48C148.484 37.28 148.817 37.18 149.257 37.18H150.057V35.62C150.057 35.18 150.191 34.8333 150.457 34.58C150.737 34.3267 151.111 34.2 151.577 34.2C152.044 34.2 152.411 34.3267 152.677 34.58C152.944 34.8333 153.077 35.18 153.077 35.62V37.18H154.477C155.384 37.18 155.837 37.56 155.837 38.32C155.837 38.68 155.724 38.96 155.497 39.16C155.271 39.3467 154.931 39.44 154.477 39.44H153.077V43.62C153.077 44.02 153.171 44.3267 153.357 44.54C153.544 44.74 153.817 44.8533 154.177 44.88L154.737 44.92ZM164.298 47C163.831 47 163.471 46.8733 163.218 46.62C162.964 46.3667 162.838 46.0067 162.838 45.54V34.36C162.838 33.8933 162.964 33.5333 163.218 33.28C163.471 33.0267 163.831 32.9 164.298 32.9H168.318C169.851 32.9 171.171 33.18 172.278 33.74C173.384 34.3 174.231 35.1067 174.818 36.16C175.404 37.2133 175.698 38.4733 175.698 39.94C175.698 41.4067 175.404 42.6733 174.818 43.74C174.244 44.7933 173.404 45.6 172.298 46.16C171.191 46.72 169.864 47 168.318 47H164.298ZM168.098 44.48C171.098 44.48 172.598 42.9667 172.598 39.94C172.598 36.9267 171.098 35.42 168.098 35.42H165.958V44.48H168.098ZM182.271 36.94C183.711 36.94 184.778 37.2933 185.471 38C186.165 38.6933 186.511 39.76 186.511 41.2V45.72C186.511 46.16 186.385 46.5067 186.131 46.76C185.878 47 185.525 47.12 185.071 47.12C184.645 47.12 184.298 46.9933 184.031 46.74C183.778 46.4733 183.651 46.1333 183.651 45.72V45.58C183.451 46.0733 183.118 46.46 182.651 46.74C182.185 47.02 181.638 47.16 181.011 47.16C180.345 47.16 179.738 47.0267 179.191 46.76C178.658 46.4933 178.231 46.12 177.911 45.64C177.605 45.16 177.451 44.6267 177.451 44.04C177.451 43.32 177.631 42.7533 177.991 42.34C178.365 41.9267 178.958 41.6267 179.771 41.44C180.585 41.2533 181.698 41.16 183.111 41.16H183.631V40.8C183.631 40.24 183.505 39.8333 183.251 39.58C183.011 39.3267 182.605 39.2 182.031 39.2C181.458 39.2 180.631 39.4 179.551 39.8C179.245 39.9467 178.985 40.02 178.771 40.02C178.478 40.02 178.245 39.92 178.071 39.72C177.898 39.5067 177.811 39.2333 177.811 38.9C177.811 38.6333 177.871 38.4133 177.991 38.24C178.111 38.0667 178.305 37.9067 178.571 37.76C179.038 37.5067 179.605 37.3067 180.271 37.16C180.951 37.0133 181.618 36.94 182.271 36.94ZM181.671 45.08C182.258 45.08 182.731 44.8867 183.091 44.5C183.451 44.1 183.631 43.5867 183.631 42.96V42.62H183.291C182.211 42.62 181.451 42.7067 181.011 42.88C180.585 43.0533 180.371 43.3667 180.371 43.82C180.371 44.1933 180.491 44.5 180.731 44.74C180.985 44.9667 181.298 45.08 181.671 45.08ZM194.229 44.92C194.629 44.9467 194.923 45.0467 195.109 45.22C195.296 45.3933 195.389 45.6467 195.389 45.98C195.389 46.3667 195.236 46.66 194.929 46.86C194.623 47.06 194.183 47.14 193.609 47.1L193.049 47.06C190.716 46.8733 189.549 45.6533 189.549 43.4V39.44H188.749C188.309 39.44 187.976 39.3467 187.749 39.16C187.523 38.96 187.409 38.68 187.409 38.32C187.409 37.9467 187.523 37.6667 187.749 37.48C187.976 37.28 188.309 37.18 188.749 37.18H189.549V35.62C189.549 35.18 189.683 34.8333 189.949 34.58C190.229 34.3267 190.603 34.2 191.069 34.2C191.536 34.2 191.903 34.3267 192.169 34.58C192.436 34.8333 192.569 35.18 192.569 35.62V37.18H193.969C194.876 37.18 195.329 37.56 195.329 38.32C195.329 38.68 195.216 38.96 194.989 39.16C194.763 39.3467 194.423 39.44 193.969 39.44H192.569V43.62C192.569 44.02 192.663 44.3267 192.849 44.54C193.036 44.74 193.309 44.8533 193.669 44.88L194.229 44.92ZM204.384 44.08C204.65 44.08 204.864 44.1867 205.024 44.4C205.197 44.6133 205.284 44.8867 205.284 45.22C205.284 45.4467 205.217 45.66 205.084 45.86C204.95 46.0467 204.764 46.2067 204.524 46.34C204.07 46.58 203.544 46.78 202.944 46.94C202.344 47.0867 201.79 47.16 201.284 47.16C200.217 47.16 199.284 46.9533 198.484 46.54C197.697 46.1267 197.09 45.54 196.664 44.78C196.237 44.0067 196.024 43.1 196.024 42.06C196.024 41.06 196.23 40.1733 196.644 39.4C197.057 38.6267 197.63 38.0267 198.364 37.6C199.097 37.16 199.93 36.94 200.864 36.94C201.757 36.94 202.537 37.14 203.204 37.54C203.884 37.9267 204.41 38.4867 204.784 39.22C205.157 39.94 205.344 40.7867 205.344 41.76C205.344 42.0533 205.27 42.28 205.124 42.44C204.99 42.5867 204.797 42.66 204.544 42.66H198.944C199.037 43.4467 199.277 44.02 199.664 44.38C200.05 44.7267 200.604 44.9 201.324 44.9C201.71 44.9 202.057 44.8533 202.364 44.76C202.67 44.6667 203.01 44.54 203.384 44.38C203.57 44.3 203.75 44.2333 203.924 44.18C204.097 44.1133 204.25 44.08 204.384 44.08ZM200.944 39.02C200.37 39.02 199.91 39.2067 199.564 39.58C199.217 39.94 199.01 40.4667 198.944 41.16H202.804C202.764 40.4533 202.584 39.92 202.264 39.56C201.957 39.2 201.517 39.02 200.944 39.02ZM210.888 47.16C210.074 47.16 209.368 47.0933 208.768 46.96C208.168 46.8267 207.641 46.6133 207.188 46.32C206.988 46.2 206.834 46.04 206.728 45.84C206.621 45.64 206.568 45.4133 206.568 45.16C206.568 44.8533 206.654 44.6 206.828 44.4C207.001 44.1867 207.214 44.08 207.468 44.08C207.641 44.08 207.814 44.1133 207.988 44.18C208.161 44.2333 208.341 44.3 208.528 44.38C208.901 44.5533 209.268 44.6933 209.628 44.8C209.988 44.8933 210.434 44.94 210.968 44.94C211.434 44.94 211.794 44.8667 212.048 44.72C212.314 44.5733 212.448 44.3733 212.448 44.12C212.448 43.9333 212.388 43.7867 212.268 43.68C212.161 43.56 211.954 43.4533 211.648 43.36C211.341 43.2667 210.854 43.1533 210.188 43.02C209.001 42.7933 208.148 42.4533 207.628 42C207.108 41.5467 206.848 40.9133 206.848 40.1C206.848 39.5 207.028 38.96 207.388 38.48C207.761 38 208.268 37.6267 208.908 37.36C209.548 37.08 210.268 36.94 211.068 36.94C211.641 36.94 212.201 37.0133 212.748 37.16C213.294 37.3067 213.781 37.5133 214.208 37.78C214.621 38.0333 214.828 38.4067 214.828 38.9C214.828 39.22 214.741 39.4867 214.568 39.7C214.394 39.9133 214.181 40.02 213.928 40.02C213.621 40.02 213.254 39.9 212.828 39.66C212.494 39.4867 212.188 39.36 211.908 39.28C211.641 39.1867 211.321 39.14 210.948 39.14C210.534 39.14 210.208 39.22 209.968 39.38C209.728 39.5267 209.608 39.7333 209.608 40C209.608 40.28 209.748 40.4933 210.028 40.64C210.308 40.7867 210.848 40.9333 211.648 41.08C212.541 41.2533 213.241 41.4667 213.748 41.72C214.254 41.96 214.621 42.2667 214.848 42.64C215.074 43.0133 215.188 43.4867 215.188 44.06C215.188 45.0067 214.794 45.76 214.008 46.32C213.234 46.88 212.194 47.16 210.888 47.16Z" fill="#D8F7F9"/>
</svg>
