<svg width="34" height="34" viewBox="0 0 34 34" fill="none" xmlns="http://www.w3.org/2000/svg">
<path d="M2.21737 2.36052C-0.44626 5.12725 0.0988955 8.06629 0.0988955 16.995C0.0988955 24.4096 -1.19479 31.8427 5.57587 33.5925C7.69011 34.1363 26.4231 34.1363 28.5345 33.5897C31.3535 32.8624 33.6471 30.5758 33.9607 26.5889C34.0044 26.0324 34.0044 7.96742 33.9593 7.39967C33.6259 3.15283 31.0117 0.705279 27.5671 0.209555C26.7776 0.0951571 26.6194 0.0612614 22.5689 0.0541998C8.20137 0.0612614 5.0519 -0.578519 2.21737 2.36052Z" fill="url(#paint0_linear)"/>
<path d="M17.0439 4.48718C11.9158 4.48718 7.0461 4.031 5.18608 8.80464C4.41778 10.7762 4.52935 13.3368 4.52935 17.0032C4.52935 20.2204 4.42625 23.2442 5.18608 25.2003C7.04186 29.9767 11.9511 29.5191 17.0411 29.5191C21.9517 29.5191 27.0149 30.0304 28.8975 25.2003C29.6672 23.2089 29.5542 20.6865 29.5542 17.0032C29.5542 12.1137 29.824 8.95717 27.4527 6.58729C25.0518 4.18635 21.8048 4.48718 17.0383 4.48718H17.0439ZM15.9225 6.74265C26.6194 6.7257 27.9809 5.53653 27.2296 22.0564C26.9626 27.8992 22.5138 27.258 17.0453 27.258C7.07435 27.258 6.78765 26.9727 6.78765 16.9975C6.78765 6.90648 7.57855 6.7483 15.9225 6.73983V6.74265ZM23.7242 8.82017C22.8951 8.82017 22.2229 9.49244 22.2229 10.3215C22.2229 11.1505 22.8951 11.8228 23.7242 11.8228C24.5532 11.8228 25.2255 11.1505 25.2255 10.3215C25.2255 9.49244 24.5532 8.82017 23.7242 8.82017ZM17.0439 10.5757C13.4948 10.5757 10.6179 13.454 10.6179 17.0032C10.6179 20.5523 13.4948 23.4292 17.0439 23.4292C20.5931 23.4292 23.4685 20.5523 23.4685 17.0032C23.4685 13.454 20.5931 10.5757 17.0439 10.5757ZM17.0439 12.8312C22.559 12.8312 22.5661 21.1751 17.0439 21.1751C11.5302 21.1751 11.5217 12.8312 17.0439 12.8312Z" fill="white"/>
<defs>
<linearGradient id="paint0_linear" x1="2.28237" y1="31.7849" x2="33.7848" y2="4.51992" gradientUnits="userSpaceOnUse">
<stop stop-color="#FFDD55"/>
<stop offset="0.5" stop-color="#FF543E"/>
<stop offset="1" stop-color="#C837AB"/>
</linearGradient>
</defs>
</svg>
