<svg width="65" height="20" viewBox="0 0 65 20" fill="none" xmlns="http://www.w3.org/2000/svg">
<path d="M9.74755 0C4.36424 0 0 4.36412 0 9.74743C0 15.131 4.36424 19.4948 9.74755 19.4948C15.1314 19.4948 19.4952 15.131 19.4952 9.74743C19.4952 4.36447 15.1314 0.000465591 9.74743 0.000465591L9.74755 0ZM14.2177 14.0586C14.0431 14.3449 13.6683 14.4357 13.382 14.26C11.0933 12.862 8.21225 12.5454 4.81924 13.3206C4.49228 13.3951 4.16636 13.1903 4.09187 12.8632C4.01702 12.5361 4.22107 12.2102 4.54885 12.1357C8.26196 11.2874 11.447 11.6526 14.0163 13.2229C14.3027 13.3986 14.3935 13.7723 14.2177 14.0586ZM15.4108 11.4045C15.1908 11.7621 14.7229 11.875 14.3655 11.655C11.7454 10.0445 7.75143 9.57807 4.65233 10.5188C4.2504 10.6402 3.8259 10.4137 3.70391 10.0125C3.58286 9.61055 3.80949 9.18686 4.21071 9.06464C7.75074 7.99052 12.1516 8.51082 15.1605 10.3598C15.5179 10.5798 15.6308 11.0477 15.4108 11.4046V11.4045ZM15.5132 8.64072C12.3716 6.77474 7.18842 6.60316 4.18895 7.51352C3.70729 7.6596 3.19793 7.38769 3.05197 6.90603C2.906 6.42414 3.17768 5.91513 3.65968 5.7687C7.10286 4.72345 12.8268 4.9254 16.4437 7.0726C16.8779 7.32972 17.0199 7.88925 16.7626 8.3219C16.5066 8.75514 15.9455 8.89796 15.5137 8.64072H15.5132ZM26.5199 8.99829C24.8367 8.59695 24.5376 8.31527 24.5376 7.72338C24.5376 7.1642 25.0637 6.78789 25.8471 6.78789C26.606 6.78789 27.3579 7.07365 28.1471 7.66192C28.1704 7.67973 28.2006 7.68683 28.2297 7.68218C28.26 7.67775 28.2856 7.66157 28.3031 7.63725L29.1249 6.47885C29.1586 6.43113 29.1493 6.36536 29.1039 6.32893C28.1646 5.57548 27.1077 5.20918 25.8715 5.20918C24.0545 5.20918 22.7846 6.29971 22.7846 7.86003C22.7846 9.53326 23.8799 10.1257 25.7726 10.5831C27.3824 10.954 27.6547 11.2648 27.6547 11.8203C27.6547 12.436 27.1053 12.819 26.2207 12.819C25.2383 12.819 24.4363 12.4872 23.5401 11.712C23.5179 11.6922 23.4877 11.6841 23.4597 11.6852C23.4295 11.6876 23.4027 11.7015 23.3841 11.7236L22.4622 12.8201C22.4238 12.8667 22.4285 12.9342 22.4727 12.9738C23.5156 13.905 24.7983 14.3962 26.1835 14.3962C28.1413 14.3962 29.4065 13.3265 29.4065 11.6701C29.41 10.2725 28.5731 9.49846 26.5233 8.99981L26.5199 8.99829ZM33.8367 7.33845C32.9881 7.33845 32.2921 7.67275 31.717 8.35775V7.58673C31.717 7.52585 31.6682 7.47627 31.6076 7.47627H30.1003C30.0397 7.47627 29.9909 7.52585 29.9909 7.58673V16.1538C29.9909 16.2143 30.0397 16.2643 30.1003 16.2643H31.6076C31.6682 16.2643 31.717 16.2143 31.717 16.1538V13.4498C32.2921 14.0935 32.9881 14.409 33.8367 14.409C35.4139 14.409 37.0108 13.1949 37.0108 10.8741C37.0132 8.55272 35.4162 7.33834 33.8378 7.33834L33.8367 7.33845ZM35.2579 10.8741C35.2579 12.0554 34.5304 12.8806 33.4875 12.8806C32.4573 12.8806 31.6798 12.0181 31.6798 10.8741C31.6798 9.72986 32.4573 8.86758 33.4875 8.86758C34.5129 8.86746 35.2579 9.71112 35.2579 10.8739V10.8741ZM41.1022 7.33845C39.0711 7.33845 37.4799 8.90238 37.4799 10.8993C37.4799 12.8748 39.0606 14.4218 41.0778 14.4218C43.1159 14.4218 44.7118 12.8632 44.7118 10.8741C44.7118 8.89167 43.1264 7.33869 41.1022 7.33869V7.33845ZM41.1022 12.8923C40.0221 12.8923 39.2073 12.024 39.2073 10.8735C39.2073 9.71775 39.9941 8.8791 41.0778 8.8791C42.165 8.8791 42.9844 9.74708 42.9844 10.8987C42.9844 12.0542 42.1929 12.8923 41.1022 12.8923ZM49.0488 7.47627H47.3901V5.78081C47.3901 5.72005 47.3412 5.67046 47.2807 5.67046H45.7733C45.7128 5.67046 45.6627 5.72005 45.6627 5.78081V7.47627H44.9387C44.8782 7.47627 44.8293 7.52585 44.8293 7.58673V8.8819C44.8293 8.94266 44.8782 8.99236 44.9387 8.99236H45.6627V12.344C45.6627 13.6978 46.3367 14.3845 47.6671 14.3845C48.2072 14.3845 48.6553 14.2728 49.0779 14.033C49.1128 14.0144 49.1337 13.9771 49.1337 13.9375V12.7037C49.1337 12.6665 49.1139 12.6304 49.0814 12.6106C49.0488 12.5896 49.008 12.5885 48.9743 12.6059C48.6844 12.7514 48.4039 12.819 48.0896 12.819C47.6066 12.819 47.3901 12.599 47.3901 12.1078V8.99294H49.0488C49.1093 8.99294 49.1582 8.94335 49.1582 8.88248V7.58743C49.1605 7.52655 49.1116 7.47697 49.0499 7.47697L49.0488 7.47627ZM54.8268 7.4829V7.27467C54.8268 6.66206 55.0619 6.38887 55.588 6.38887C55.9023 6.38887 56.1549 6.45126 56.4377 6.54555C56.4727 6.55649 56.5087 6.55102 56.5367 6.53018C56.5658 6.50935 56.5821 6.47594 56.5821 6.44056V5.17065C56.5821 5.12211 56.5518 5.07916 56.5041 5.06484C56.2061 4.97603 55.8243 4.88489 55.2516 4.88489C53.8607 4.88489 53.1239 5.66872 53.1239 7.15082V7.46975H52.3999C52.3393 7.46975 52.2893 7.51934 52.2893 7.5801V8.8819C52.2893 8.94266 52.3393 8.99236 52.3999 8.99236H53.1239V14.161C53.1239 14.2227 53.1739 14.2716 53.2345 14.2716H54.7406C54.8023 14.2716 54.8512 14.2227 54.8512 14.161V8.99271H56.2585L58.4142 14.161C58.1697 14.7034 57.9288 14.8117 57.6006 14.8117C57.3352 14.8117 57.0546 14.7325 56.7695 14.5754C56.7427 14.5614 56.7101 14.5591 56.6822 14.5673C56.6531 14.5777 56.6286 14.5987 56.617 14.6266L56.106 15.7475C56.0816 15.8011 56.1025 15.8628 56.1537 15.8907C56.6868 16.1794 57.1676 16.3028 57.7623 16.3028C58.8751 16.3028 59.4909 15.7836 60.0321 14.3892L62.6464 7.63376C62.6604 7.59977 62.6557 7.56136 62.6348 7.53121C62.615 7.50129 62.5812 7.48325 62.5452 7.48325H60.9761C60.9284 7.48325 60.8865 7.51317 60.8713 7.55728L59.2639 12.1473L57.5039 7.55426C57.4876 7.51154 57.4469 7.48325 57.4015 7.48325H54.8268V7.4829ZM51.4768 7.47627H49.9695C49.9089 7.47627 49.8589 7.52585 49.8589 7.58673V14.161C49.8589 14.2227 49.9089 14.2716 49.9695 14.2716H51.4768C51.5374 14.2716 51.5874 14.2227 51.5874 14.161V7.5872C51.5874 7.52632 51.5385 7.47673 51.4768 7.47673V7.47627ZM50.7319 4.48262C50.1348 4.48262 49.6505 4.9659 49.6505 5.56291C49.6505 6.16027 50.1348 6.64414 50.7319 6.64414C51.329 6.64414 51.8121 6.16027 51.8121 5.56291C51.8121 4.96602 51.3278 4.48262 50.7319 4.48262ZM63.9338 9.59018C63.3378 9.59018 62.8734 9.1112 62.8734 8.52956C62.8734 7.94791 63.3437 7.46346 63.9396 7.46346C64.5356 7.46346 65 7.94233 65 8.5235C65 9.10515 64.5298 9.59018 63.9338 9.59018ZM63.9396 7.56892C63.396 7.56892 62.9851 8.00076 62.9851 8.52956C62.9851 9.05812 63.3937 9.48414 63.9338 9.48414C64.4774 9.48414 64.8883 9.05265 64.8883 8.5235C64.8883 7.99494 64.4797 7.56892 63.9396 7.56892ZM64.1747 8.63257L64.475 9.05254H64.2213L63.9512 8.66726H63.7196V9.05254H63.5078V7.9393H64.0036C64.2632 7.9393 64.4331 8.07165 64.4331 8.29443C64.4343 8.47695 64.3284 8.58846 64.1759 8.63257H64.1747ZM63.9955 8.13031H63.7196V8.48242H63.9955C64.1328 8.48242 64.2155 8.41502 64.2155 8.30619C64.2155 8.19165 64.1328 8.13031 63.9955 8.13031Z" fill="#1ED760"/>
</svg>
