<svg width="134" height="30" viewBox="0 0 134 30" fill="none" xmlns="http://www.w3.org/2000/svg">
<path d="M41.8304 4.69357C41.3363 2.85457 39.8816 1.39984 38.0426 0.905776C34.7214 0 21.3544 0 21.3544 0C21.3544 0 7.9873 0.0274477 4.66612 0.933224C2.82712 1.42728 1.37239 2.88202 0.878328 4.72102C-6.54406e-08 8.0422 0 14.9865 0 14.9865C0 14.9865 -6.54406e-08 21.9308 0.905776 25.2794C1.39984 27.1184 2.85457 28.5731 4.69357 29.0672C8.01475 29.973 21.3818 29.973 21.3818 29.973C21.3818 29.973 34.7489 29.973 38.0701 29.0672C39.9091 28.5731 41.3638 27.1184 41.8578 25.2794C42.7636 21.9582 42.7636 14.9865 42.7636 14.9865C42.7636 14.9865 42.7362 8.0422 41.8304 4.69357Z" fill="#FF0000"/>
<path d="M17.1 21.4095L28.1889 14.9867L17.1 8.56396V21.4095Z" fill="white"/>
<path d="M62.0319 27.2554C61.1811 26.679 60.5772 25.8006 60.2204 24.5929C59.8636 23.3852 59.6989 21.7933 59.6989 19.7896V17.0723C59.6989 15.0686 59.891 13.4217 60.3027 12.214C60.7145 10.9788 61.3458 10.1005 62.2241 9.55156C63.1024 9.00261 64.2278 8.70068 65.6276 8.70068C67 8.70068 68.1254 8.97516 68.9488 9.55156C69.7722 10.128 70.4035 11.0063 70.7878 12.214C71.172 13.4217 71.3642 15.0411 71.3642 17.0448V19.7621C71.3642 21.7658 71.172 23.3578 70.7878 24.5655C70.4035 25.7732 69.7997 26.6515 68.9488 27.2279C68.0979 27.7769 66.9451 28.0788 65.5178 28.0788C64.0356 28.1063 62.8828 27.8043 62.0319 27.2554ZM66.7804 24.3185C67.0274 23.7146 67.1372 22.699 67.1372 21.3267V15.4803C67.1372 14.1353 67.0274 13.1472 66.7804 12.5434C66.5334 11.9121 66.1217 11.6101 65.5453 11.6101C64.9689 11.6101 64.5846 11.9121 64.3376 12.5434C64.0905 13.1747 63.9807 14.1353 63.9807 15.4803V21.3267C63.9807 22.699 64.0905 23.7146 64.3101 24.3185C64.5297 24.9223 64.9414 25.2242 65.5453 25.2242C66.1217 25.2242 66.5334 24.9223 66.7804 24.3185Z" fill="white"/>
<path d="M126.946 19.8445V20.8051C126.946 22.0128 126.973 22.9186 127.056 23.5225C127.138 24.1263 127.275 24.5655 127.495 24.84C127.714 25.1144 128.071 25.2517 128.538 25.2517C129.169 25.2517 129.608 25.0047 129.828 24.5106C130.075 24.0165 130.185 23.1931 130.212 22.0677L133.863 22.2873C133.89 22.452 133.89 22.6716 133.89 22.9461C133.89 24.6753 133.424 25.9653 132.463 26.8162C131.502 27.6671 130.185 28.1063 128.456 28.1063C126.37 28.1063 124.915 27.4475 124.091 26.1575C123.268 24.8674 122.829 22.8363 122.829 20.119V16.7978C122.829 13.9981 123.268 11.9395 124.119 10.6495C124.997 9.35943 126.479 8.70068 128.565 8.70068C130.02 8.70068 131.118 8.97516 131.887 9.49667C132.655 10.0182 133.204 10.8416 133.533 11.967C133.863 13.0923 134 14.6294 134 16.6056V19.817H126.946V19.8445ZM127.495 11.9395C127.275 12.214 127.138 12.6257 127.056 13.2296C126.973 13.8334 126.946 14.7392 126.946 15.9743V17.3193H130.02V15.9743C130.02 14.7666 129.993 13.8609 129.91 13.2296C129.828 12.5983 129.691 12.1591 129.471 11.9121C129.252 11.665 128.922 11.5278 128.483 11.5278C128.016 11.5553 127.687 11.6925 127.495 11.9395Z" fill="white"/>
<path d="M51.7665 19.4876L46.9631 2.14062H51.1626L52.837 9.99069C53.2761 11.9395 53.578 13.5863 53.7976 14.9313H53.9074C54.0447 13.9432 54.374 12.3237 54.8681 10.0181L56.5973 2.14062H60.7968L55.9386 19.4602V27.7768H51.7939V19.4876H51.7665Z" fill="white"/>
<path d="M84.9783 9.05762V27.8044H81.6846L81.3277 25.4988H81.2454C80.3396 27.228 78.9947 28.1064 77.2106 28.1064C75.9754 28.1064 75.0422 27.6946 74.4658 26.8712C73.8619 26.0478 73.5875 24.7852 73.5875 23.056V9.05762H77.8144V22.8089C77.8144 23.6324 77.8968 24.2362 78.0889 24.5931C78.281 24.9499 78.583 25.1146 78.9947 25.1146C79.3515 25.1146 79.7083 25.0048 80.0377 24.7852C80.3671 24.5656 80.6141 24.2637 80.7788 23.9343V9.05762H84.9783Z" fill="white"/>
<path d="M106.635 9.05762V27.8044H103.341L102.984 25.4988H102.902C101.996 27.228 100.651 28.1064 98.8669 28.1064C97.6317 28.1064 96.6985 27.6946 96.1221 26.8712C95.5182 26.0478 95.2437 24.7852 95.2437 23.056V9.05762H99.4707V22.8089C99.4707 23.6324 99.553 24.2362 99.7452 24.5931C99.9373 24.9499 100.239 25.1146 100.651 25.1146C101.008 25.1146 101.365 25.0048 101.694 24.7852C102.023 24.5656 102.27 24.2637 102.435 23.9343V9.05762H106.635Z" fill="white"/>
<path d="M96.4514 5.54415H92.2519V27.8043H88.1348V5.54415H83.9353V2.14062H96.424V5.54415H96.4514Z" fill="white"/>
<path d="M120.578 12.0495C120.331 10.8692 119.919 10.0184 119.343 9.4694C118.766 8.94789 117.998 8.67342 116.982 8.67342C116.214 8.67342 115.473 8.893 114.814 9.33216C114.128 9.77133 113.634 10.3477 113.249 11.0614H113.222V1.18018H109.16V27.7771H112.646L113.085 25.993H113.167C113.496 26.6243 113.991 27.1183 114.622 27.5026C115.281 27.8594 115.994 28.0515 116.79 28.0515C118.217 28.0515 119.261 27.3928 119.947 26.0753C120.605 24.7578 120.962 22.6992 120.962 19.927V16.9626C120.962 14.8766 120.825 13.2297 120.578 12.0495ZM116.708 19.7074C116.708 21.0798 116.653 22.1503 116.543 22.9188C116.433 23.6873 116.241 24.2363 115.967 24.5657C115.692 24.895 115.335 25.0597 114.896 25.0597C114.539 25.0597 114.238 24.9774 113.936 24.8127C113.634 24.648 113.414 24.401 113.222 24.0716V13.4219C113.359 12.9004 113.606 12.4887 113.963 12.1593C114.32 11.8299 114.677 11.6652 115.088 11.6652C115.528 11.6652 115.857 11.8299 116.077 12.1593C116.324 12.4887 116.461 13.0651 116.571 13.861C116.653 14.657 116.708 15.7824 116.708 17.2646V19.7074Z" fill="white"/>
</svg>
